<svg height="626" viewBox="0 0 1410 626" width="1410" xmlns="http://www.w3.org/2000/svg" xmlns:xlink="http://www.w3.org/1999/xlink"><linearGradient id="a"><stop offset="0" stop-color="#1da748"/><stop offset="1" stop-color="#1c9145"/></linearGradient><linearGradient id="b" x1="67.441023%" x2="37.538726%" xlink:href="#a" y1="47.567014%" y2="51.694333%"/><linearGradient id="c" x1="67.441023%" x2="37.538726%" xlink:href="#a" y1="47.566653%" y2="51.694584%"/><linearGradient id="d" x1="67.441023%" x2="37.538726%" xlink:href="#a" y1="47.566802%" y2="51.694481%"/><g fill="none" fill-rule="evenodd" transform="translate(.813739)"><path d="m1305.28499 623.672335-1222.6619193-.315433s-.7550034-.686829-2.1256094-2.019787c-.5423407-.529113-1.1854164-1.159978-1.9180343-1.892596-1.9292271-1.938385-4.4740568-4.568687-7.4599834-7.855292-1.1635397-1.271906-2.3937272-2.650652-3.6742822-4.115888-5.7383314-6.547772-12.6056065-14.983053-19.7140351-25.036199-1.7669318-2.492936-3.5450565-5.092712-5.3297951-7.789152-.0722442-.111928-.1505937-.223856-.2233467-.335784-.5871118-.885246-1.1686273-1.785756-1.7618442-2.691353v-.005087c-.8669312-1.343133-1.7333536-2.706616-2.5946884-4.095538-3.1655198-5.087624-6.3025489-10.475418-9.3225626-16.132856-.1902771-.356134-.3805543-.712268-.565235-1.068401-2.1027151-3.96326-4.1489576-8.068972-6.1066754-12.2917-.1678916-.351046-.3301868-.712268-.4975696-1.068401-.2294519-.498588-.4533073-1.002262-.6822504-1.505937-.1958736-.427361-.3861507-.859809-.5764279-1.292257-.4807804-1.073489-.9503682-2.152065-1.4148683-3.240816-.044771-.106841-.0895421-.213681-.1343132-.320521-.1338045-.30017-.2625214-.610515-.3912383-.910684-1.4428503-3.429059-2.824649-6.929345-4.1275896-10.495769-.6313741-1.709442-1.2413803-3.429059-1.8284921-5.169026-2.56670641-7.514421-4.78745438-15.323925-6.55998265-23.382721-1.26936224-5.774454-2.30927263-11.681185-3.0759776-17.71002-.01119277-.096665-.02187678-.198418-.03357832-.289995-1.11266341-8.816853-1.64991653-17.882999-1.47083216-27.167913.77789774-40.700994 15.18401443-85.563664 53.93441303-131.423509 19.7135263-23.328283 39.9637969-42.582905 60.4938872-58.214631 8.685083-6.609841 17.414937-12.577116 26.183966-17.929296 43.716429-26.687133 88.215843-38.135305 131.154882-38.610489 1.733863-.016789 3.467725-.022386 5.195482-.011193 50.701737.481289 99.076903 16.095208 141.197344 39.745538 26.979671 15.14484 85.166829 12.835058 151.015949-24.847448 8.613348-4.926855 17.353886-10.457612 26.180914-16.642636 21.851346-15.306627 44.196192-34.567354 66.215429-58.407961 1.358396-1.471341 2.711704-2.958963 4.065012-4.462864 10.399104-11.537714 20.711718-24.103637 30.851353-37.7664523.198418-.2681178.391747-.531148.595252-.7885818 3.184853-4.2502012 6.542685-8.3493001 10.058233-12.3034016 79.621319-89.5920448 240.395332-104.0821073 370.012735-59.0286511 8.88299 3.0871704 17.62862 6.4541601 26.18091 10.0999516 30.35277 12.9184954 58.41102 29.3047154 82.55179 48.9286995 4.88921 3.9647856 9.61561 8.0699895 14.16904 12.3034016 12.72923 11.8394101 24.10516 24.7080471 33.8327 38.5550341 1.03279 1.47592 2.05031 2.96405 3.05257 4.462864 33.19166 49.811911 45.24424 111.894663 23.11308 184.452324-44.94916 147.393561 136.81639 152.750829 44.19619 300.088427" fill="#ebf3fa"/><path d="m1039.40066 351.977939v-30.983632h-9.08141v-53.276583h-48.683473v53.276583h-45.513886v-86.811149h-50.225027v56.352561h-11.452242v-67.278234h-50.225026v126.141028h-63.518988v73.556871h-23.733767v-32.743949h-54.518981v19.368585h-31.299064v-86.708379h-38.665944v64.180379h-38.660857v235.160166h504.366715v-270.234247z" fill="#e2eef9"/><path d="m578.950321 394.775034v227.101369h-444.351573v-197.618587h34.062153v-53.933904h34.062153v72.864954h27.574923v-16.280398h48.035313v27.524047h20.906065v-61.814634h55.959797v-106.005738h44.249611v56.538768h10.088759v-47.36222h44.252155v72.95297h40.100654v-44.771093h42.89376v44.771093h7.997745v26.033373z" fill="#e2eef9"/><g fill="#deedff"><path d="m1104.36962 34.8815846v585.6516854h-26.18091v-595.751637c8.88299 3.0871704 17.62862 6.4541601 26.18091 10.0999516"/><path d="m141.646125 237.905773v382.627498h-26.184475v-364.697693c8.685592-6.61035 17.415446-12.577624 26.184475-17.929805"/><path d="m596.390696 197.539545v422.993726h-26.180914v-406.350581c8.613348-4.927364 17.353886-10.45812 26.180914-16.643145"/></g><path d="m693.706772 615.415121c.4935-1.566989.946298-3.113626 1.368571-4.634826.071227 1.098927.111928 1.73488.111928 1.73488s.524025.101752 1.338045.228943c-.763144 1.042963-1.750143 1.92821-2.818544 2.671003zm-16.824773-68.876257h.386659zm34.010768-11.548907c1.551725 5.479371 1.607689 9.066147 1.332957 11.548907h-8.348791s3.836069-5.54551 7.015834-11.548907zm-157.67565 19.475426c.549464.015263 2.192766.061051 2.650653.142453h.010175c-2.533637-.167891-5.306392-.249293-8.119848-.269644h4.782366c.269644.076314.498587.122103.676654.127191zm5.057099.340871.035613.005087.101753.010175c-.045789-.005087-.091578-.010175-.137366-.015262zm-13.858689-.468062h.661392c-.213681.005088-.422273.005088-.630866.005088zm-10.826464-12.546081c.188242.386659.417185.788582.686829 1.185416.676654 1.00735 1.561901 2.024875 2.447148 2.864333.264556.249293.524025.483324.783494.697004h-3.479935l2.940647-.005087c.717355-.005088-2.233467-2.482761-3.566425-2.889771.020351-.305257.045789-.625778.081402-.966649v-.005087c.035613-.27982.071227-.574902.10684-.880159zm43.555151 67.105763c.295082 1.037875.574902 2.050313.747881 2.747317.295082 1.215942-.142454 2.584513-.534201 3.622389-.21368.564726-.42736 1.139627-.483324 1.75523-.015263.19333.005088.366309.045789.524025-1.902772-.992086-3.067838-2.772755-4.634826-4.441496-.478237-.51385-.951386-1.368571-1.378746-2.314869.452798-.152628.676654-.310345.676654-.310345s-.997175-5.611649-2.564163-13.176946c3.912383 6.074623 7.707751 11.487855 7.707751 11.487855s.162804.045789.417185.10684zm-16.723021-64.068452c-.391747 0-.752968.249294-.854721.625778-.152628.564727.27982 1.083664.824195 1.083664h-13.894301c-.747881-.773319-1.460148-1.536462-2.091014-2.218204.137366-.198417.269644-.391747.391747-.585077.630866-.946298 1.073489-1.739967 1.241381-1.923122.508762-.564726-2.055401-1.684003-3.108539-2.528549-.335783-.269644-.992087-2.126627-1.719617-4.527985h27.951408l-.259469 8.023183c-.040701 1.144715-.976824 2.050312-2.12154 2.050312zm65.554038-9.859815h19.85191zm144.117131 11.569257h-19.831559c1.846808-15.110244 4.858681-25.09725 4.90447-25.239704.030525-.096664.050876-.228943.050876-.366308 0 0 .671566-4.141327-6.425669-4.237991-6.619-.091578-9.839466 2.645564-10.424542 3.647826-1.856983-8.486157-4.461847-15.522341-7.672138-16.514428-1.373658-.42736-2.971172-.60034-4.639913-.615603-.167892-.518937-.585077-1.587338-1.256643-1.846807-.055964-.020351-.142454-.035614-.249294-.040701-.529113-1.190504-1.042963-2.676091-1.383834-4.421146.025439-.071226.045789-.142453.06614-.218767 2.609951-3.485023 4.13115-10.724712 2.910121-11.986443-4.527986-4.675527-20.589616-1.643303-14.382714 3.871682-.076314.203505-.137366.401922-.19333.60034-.518937 1.872245.223856 11.411541 2.579426 11.665922 0 0 .758056.035613 1.836632-.050876.040701.478236.101753 1.231205.172979 2.101188-.539288.122103-.880159.208593-.910684.218768-1.236293.447711-2.187679 1.60769-2.660828 2.279256 0 0-8.013008 4.182027-9.061059 8.119848-1.04805 3.937821-4.899382 23.026587-6.37988 24.364633-1.480499 1.338045-18.50369 4.441495-18.50369 4.441495s-.218768.244206-.488412.641041c-1.170153-.635953-3.047487-1.607689-3.830981-1.724704-1.063313-.157717-5.749015 3.719053-6.023747 4.73149-.503674.335783-.824195.579989-.824195.579989h-2.620126v-.732618h-5.072362l-.015262-.005087c1.449972-.005088 2.472585-.010176 2.635389-.010176-.218768 0-1.933297-.040701-2.172416-1.32787-.02035-.101752-.030525-.208592-.030525-.325607.005087-.203505.091577-1.256644.239118-2.910121.040701-.422273.081402-.880159.127191-1.378747.086489-.94121.188242-2.004524.295082-3.164502l.081402-.559639h34.682334l1.963823-1.15489h-36.564755 36.564755l-2.640477-9.910692h.015263l-.147541-.549464h.030525l-11.452242-42.781832-.010175-.035613h-70.779028v.040701l-1.032788.340871 12.886952 54.050919h21.276445l-.671566 7.946869s-.356134 2.447148 1.465235 2.452235c.635953 0 1.678916.005088 2.920297.005088v.010175h-67.711191l.111928-.010175h.239118c.605427.005088 1.083664-.51385 1.022613-1.119277l-1.068402-10.653485h19.053153l5.682876-46.297381h-62.537076l-4.88412 39.785222c-.905597-3.337482-1.612777-6.135675-1.612777-6.135675-.51385-1.282082-2.543812-8.542121-3.556249-9.630873-.391747-.422273-1.266818-.752968-2.192766-1.00735.249294-.412097.376484-.875071.335783-1.388921-.23403-2.808368 3.0424-2.574338 5.057099-5.799892 1.75523-2.823631-1.383834-3.535898.295082-8.099497 1.231205-3.342569-1.973998-4.156589-1.877333-6.949695 0 0-.40701-5.194464-7.88073-3.846244-1.973998.361221-3.332394-3.164502-6.568123-1.907859-6.95987 2.701529-7.371968-.864896-9.381579 4.141326-.844546 2.096101-6.201814 4.538161-4.563599 8.160549 1.633127 3.622389-1.104015 6.059361.819107 8.898255.997175 1.470324.595252 4.095538 5.286042 4.187115.742793.015263 1.607689.457886 2.533637 1.083664-1.505937.295082-3.500286.844545-4.889207 1.816282l-.005088.005087h-.005087l-.005088.005088c-.32052.223855-.610515.473149-.854721.747881l-.040701.050876c-.366309.432448-.64104 1.022612-.854721 1.694179 0 0-1.012437 2.67609-2.096101 6.110236-1.093839-.239118-2.345395-.386659-3.79028-.366308-.178067.005087-.345958.010175-.508762.02035-.366309-.015263-.742793-.025438-1.13454-.02035-6.364618.096664-5.759191 4.100625-5.759191 4.100625 0 .132278.015263.259468.045789.356133.035613.132279 2.452234 8.771064 4.115888 22.070114h-23.438685c-2.14189 0-3.89712 1.755231-3.89712 3.902208 0 2.14189 1.75523 3.89712 3.89712 3.89712h16.092155l-8.893167 66.276481c-.050876.376484.244206.707179.630865.707179.442624 0 .81402-.310345.890335-.732617l10.394016-58.889251v-.005087l1.297344-7.356705h3.846244c.478237 5.576036.773319 11.706623.712267 18.188257l-.005087.081402c-.025438.091577-.040701.183154-.040701.279819v.641041c0 .061051.005087.117015.015263.178066.005087.101753.005087.198418.010175.284907 0 0 .040701 0 .091577.005088.172979.32052.503675.539288.890334.539288h.228943l-.025438.127191c.010176.223855 1.485587 17.81686-4.258341 46.495797h1.073489c7.90108-23.011324 7.524596-43.249893 7.183725-46.622988h5.255516l-.025438.127191c.005087.223855 1.485586 17.81686-4.258342 46.495797h1.068401c7.901081-23.011324 7.524597-43.249893 7.183726-46.622988h20.513301c-.340871 3.373095-.717356 23.611664 7.183725 46.622988h1.073489c-5.743928-28.678937-4.268517-46.271942-4.263429-46.495797l-.020351-.127191h5.194464c-.34087 3.373095-.722442 23.611664 7.178638 46.622988h1.073489c-4.115888-20.559089-4.522898-35.420039-4.421146-42.273069.117016 1.215942.244206 2.533637.457887 3.886945.849633 5.448845 15.044104 27.488433 15.044104 27.488433s.142454.040701.376485.106841c.152628.559638.284906 1.068401.386659 1.470323.30017 1.22103-.142454 2.584513-.534201 3.622388-.21368.564727-.42736 1.144716-.478236 1.755231-.162804 1.739967 2.253817 2.16224 5.057098 2.299606 2.803281.142453 1.953648.712267 5.794804 1.409272 3.841156.697004 5.377619-.356134 5.657438-.875072.117016-.218767-.23403-.503674-.844545-.824195.42736.040701.869983.071227 1.322782.096665 2.803281.137366 1.953648.712268 5.794804 1.409272 3.841156.691917 5.377619-.356134 5.657438-.875071.244206-.462974-1.54155-1.180329-3.444322-1.994349-.239118-.101753-.478236-.208593-.717355-.310345-2.141889-.941211-3.342569-2.864333-5.011309-4.645001-.717355-.763144-1.41436-2.289431-1.968911-3.729229.590164-.198417.864896-.417185.864896-.417185s-10.465243-47.981384-16.992665-52.102359c-.936123-.590165-2.452235-1.037876-4.355006-1.378746.096665-.091578-.239118-.468062-.768231-.941211h137.961105c-10.638222 2.325044-21.739418 5.316567-23.621839 7.992658-3.775017 5.362356-9.651223 51.033958-9.651223 51.033958s.055964.015263.162804.040701c-2.416621 2.76258-6.334092 4.293955-8.877904 4.736578-3.139064.544376-3.210291 3.133977-3.210291 3.133977l10.745062.061051s8.414931 0 8.638786-.015263c1.195592-.086489 1.82137-4.451671 2.091014-7.046359.183154-.045789.356133-.096665.51385-.152629 0 0 14.036755-36.188271 15.176383-40.105741.117015-.412098.51385-.737706 1.13454-.997175.122103.055964.259469.081402.401922.081402h2.798194l-.025439.132278c0 .040701.061052.727531.111928 2.0147-.83437 1.042963-1.429622 2.157152-1.551725 3.29678-.269644 2.477673.101752 11.37084.5342 19.434725-.605427 5.469196-1.526287 11.752411-2.894858 18.742807-1.546638.737706-3.088188 1.205767-4.314305 1.419447-3.139064.544376-3.210291 3.133977-3.210291 3.133977l6.578298.040701-.005088.02035h1.195592l.005088-.015263 2.966085.015263h6.05936 1.195592l.005087-.005087c.783495 0 1.32787-.005088 1.383834-.010176 1.43471-.10684 2.045225-6.354442 2.208029-8.333528.310345-.111928.559639-.249294.72753-.422273 0 0 .244206-3.245904.559639-7.692488 2.508199-11.024881 3.18994-20.38611 3.27643-26.1453 3.464672-1.505937 10.96383-3.881858 17.079155-5.626913h5.662525c-.381572 3.485023-.803844 24.430772 8.013008 48.235765h1.195592c-6.405319-29.665936-4.756929-47.874544-4.751841-48.103487l-.025438-.132278h5.866031c-.381572 3.485023-.803845 24.430772 8.013008 48.235765h1.195592c-6.405319-29.665936-4.762017-47.874544-4.751842-48.103487l-.025438-.132278h.295083c.40701 0 .758056-.228943.94121-.559638.066139 0 .111928-.005088.111928-.005088.010175-.096665.010175-.208593.010175-.325608.010175-.061052.020351-.127191.020351-.188242v-.590165c0-.101752-.020351-.203505-.050877-.300169v-.111928c-.061051-5.891469.183155-11.492943.605428-16.68232h3.836068l11.686273 66.251043c.076314.422272.452799.732617.890334.732617.38666 0 .681742-.330695.635953-.707179l-8.898254-66.276481h12.474854c2.146978 0 3.902208-1.75523 3.902208-3.89712 0-2.146977-1.75523-3.902208-3.902208-3.902208z" fill="#c7ddea"/><path d="m1288.53653 615.359157c.49859-1.577163.95648-3.139064 1.38384-4.675527.07122 1.109102.11192 1.755231.11192 1.755231s.52912.096665 1.34822.228943c-.77332 1.053138-1.76031 1.943472-2.84398 2.691353m-16.9774-69.491859v-.005088h.39175zm34.32111-11.655747c1.5619 5.530247 1.62295 9.147548 1.34314 11.655747h-8.42511s3.87168-5.601474 7.08197-11.655747m-134.95432 74.574396c.29509 1.042963.57999 2.065575.75297 2.767667.30017 1.231205-.14754 2.609951-.53929 3.658002-.21368.569814-.42736 1.154891-.48332 1.770493-.02035.19333 0 .371397.0407.534201-1.91803-1.002262-3.09328-2.803281-4.67553-4.487285-.48332-.51385-.96156-1.378746-1.38892-2.330132.4528-.157716.68174-.32052.68174-.32052s-1.00735-5.657438-2.5896-13.293962c3.948 6.130587 7.77898 11.594695 7.77898 11.594695s.1628.045789.42227.106841m-16.87565-64.643354c-.39174 0-.75805.249294-.8598.625778-.15772.574902.27981 1.098927.82928 1.098927h-14.02149c-.75297-.783494-1.47542-1.551725-2.11137-2.243642.14245-.198418.27473-.396835.40192-.585077.63087-.961561 1.07858-1.75523 1.25156-1.943473.51385-.569813-2.07575-1.699266-3.13906-2.553987-.34088-.269644-.99718-2.146977-1.73488-4.563599h28.2007l-.25947 8.09441c-.0407 1.154891-.987 2.070663-2.14189 2.070663zm66.14929-9.951393h20.02489zm145.41448 11.676098h-20.00963c1.86207-15.24761 4.89938-25.326193 4.94517-25.473734.03053-.096665.05088-.228944.05088-.366309 0 0 .68174-4.182028-6.48163-4.278692-6.68005-.091578-9.92596 2.671002-10.51612 3.68344-1.87734-8.56756-4.50764-15.659708-7.74337-16.667057-1.38383-.427361-2.99661-.60034-4.68061-.615603-.17298-.524025-.59525-1.602601-1.27191-1.867158-.05596-.02035-.14245-.035613-.24929-.035613-.5342-1.205767-1.05314-2.706616-1.39401-4.466934.02035-.071227.04579-.142454.06614-.218768 2.6303-3.515549 4.16676-10.826465 2.93556-12.098371-4.56869-4.716227-20.77277-1.658565-14.51499 3.912383-.07632.203505-.13737.401923-.19333.605428-.51894 1.887508.22385 11.513293 2.59977 11.772762 0 0 .76823.030526 1.85699-.055964.0407.483325.10175 1.246468.17297 2.12154-.54437.12719-.89033.208592-.91577.218767-1.25155.452799-2.20803 1.622953-2.68626 2.299607 0 0-8.08424 4.222728-9.14246 8.196162-1.06332 3.973435-4.94517 23.23518-6.43585 24.5834-1.49576 1.348221-18.67158 4.482197-18.67158 4.482197s-.22385.249294-.4935.646129c-1.18542-.646129-3.07292-1.622953-3.86659-1.739968-1.07349-.157716-5.79989 3.749579-6.07971 4.772192-.50877.34087-.82929.590164-.82929.590164h-2.64047v-.742793h-5.12324l-.01526-.005088c1.46523-.005087 2.49293-.010175 2.66082-.010175-.22385 0-1.94856-.040701-2.19276-1.343133-.02035-.101752-.03053-.208592-.03053-.325608 0-.203505.09158-1.266818.24421-2.935559.03561-.42736.07631-.890334.12719-1.388921.08649-.951386.18315-2.024875.29508-3.195028l.0814-.564727h34.99777l1.97908-1.165066h-36.89545 36.89545l-2.66591-10.002269h.01526l-.14754-.549463h.03562l-11.55909-43.168492-.01017-.035613h-71.42007v.035613l-1.03788.345959 12.99888 54.539331h21.46978l-.67157 8.018096s-.36122 2.472585 1.47541 2.477673h2.94574v.015263h-68.3268l.11702-.015263.23912.005088c.61051.005087 1.09384-.524026 1.03278-1.13454l-1.07857-10.745063h17.94405v-.005087h1.28208l5.73375-46.709478h-1.28208v-.005088h-61.81463l-4.92991 40.146443c-.91577-3.368008-1.63313-6.191639-1.63313-6.191639-.51385-1.297344-2.55907-8.618435-3.58169-9.717362l-.00508-.005088c-.39175-.422273-1.277-.758056-2.21312-1.007349.25438-.422273.38157-.885247.34087-1.404185-.23403-2.833806 3.07293-2.594688 5.10289-5.855855 1.77558-2.84907-1.39401-3.566425.30017-8.170725 1.24138-3.373094-1.99435-4.192202-1.8926-7.010746 0 0-.41718-5.240253-7.95195-3.881857-.89543.162804-1.66366-.462974-2.53364-1.088752-1.0684-.768231-2.29452-1.536462-4.09554-.839458-7.02601 2.732055-7.43811-.869983-9.46807 4.182027-.84963 2.116452-6.25269 4.578862-4.6043 8.231776 1.64839 3.658002-1.11419 6.115325.82929 8.979657 1.00226 1.480499.59525 4.131151 5.33183 4.227816.74788.015263 1.62295.462974 2.55907 1.088751-1.5212.30017-3.53081.854721-4.93499 1.836633h-.01018v.005087l-.00509.005088c-.32561.223855-.62069.478237-.86489.752968l-.0407.050877c-.3714.437535-.65122 1.032787-.85981 1.709441h-.00509s-1.01753 2.701529-2.11137 6.166201c-1.10401-.239118-2.37083-.38666-3.82589-.366309-.17807 0-.34596.010175-.51385.015263-.36631-.015263-.74788-.020351-1.14471-.015263-6.42059.091577-5.81007 4.131151-5.81007 4.131151 0 .137366.01526.264556.04579.361221.03561.132278 2.47767 8.852466 4.1515 22.273619h-23.64728c-2.16224 0-3.93273 1.770493-3.93273 3.932733 0 2.162241 1.77049 3.932734 3.93273 3.932734h16.2397l-.14754 1.068401-8.83212 65.808419c-.05087.376484.2493.712268.64104.712268.44263 0 .8242-.315433.89542-.737706l11.7982-66.851382h3.88186c.48333 5.626912.77841 11.813463.71736 18.351061v.086489c-.03053.08649-.04579.183155-.04579.279819v.651216c0 .055964.00509.117016.01526.17298 0 .101752.00509.203505.01018.289994 0 0 .0407 0 .09666.005088.16789.32052.50368.544376.89542.544376h.22895l-.02544.12719c.01017.223856 1.50085 17.979664-4.29396 46.918071h1.07858c7.97231-23.219917 7.59073-43.641641 7.24986-47.045261h5.30131l-.02544.12719c.01018.223856 1.50085 17.979664-4.29395 46.918071h1.07857c7.97231-23.219917 7.59074-43.641641 7.24987-47.045261h20.69645c-.34596 3.40362-.72244 23.825344 7.24478 47.045261h1.08366c-5.7948-28.938407-4.30413-46.694215-4.29904-46.918071l-.02035-.12719h5.24025c-.34596 3.40362-.72753 23.825344 7.24478 47.045261h1.08366c-4.15659-20.742244-4.5636-35.74056-4.46184-42.654642.11701 1.226118.24929 2.553988.46297 3.922559.85472 5.494634 15.18147 27.732639 15.18147 27.732639s.14245.045789.37649.111928c.15262.559638.28999 1.073489.39174 1.480498.30017 1.231206-.14754 2.609952-.53929 3.658002-.21368.569814-.42736 1.149803-.48332 1.770494-.1628 1.750142 2.27926 2.177503 5.10289 2.319956 2.82872.142454 1.974.717355 5.84568 1.419447 3.87677.702092 5.42849-.356133 5.70831-.880159.1221-.223855-.23403-.508762-.84963-.83437.42736.040701.87507.076314 1.33296.096665 2.82872.142453 1.97399.722442 5.84568 1.424535 3.87677.697004 5.42849-.361222 5.70831-.885247.24929-.462974-1.55172-1.190504-3.46976-2.009612-.24421-.101752-.48332-.208592-.72753-.315432-2.15715-.951386-3.37309-2.884683-5.0571-4.685702-.72244-.768231-1.42962-2.309782-1.98417-3.764842.59016-.198417.86998-.417185.86998-.417185s-10.56191-48.413832-17.14529-52.570421c-.9463-.595252-2.47259-1.053138-4.39571-1.399097.09667-.08649-.23912-.462974-.77332-.946298h139.20758c-10.73998 2.345395-21.93784 5.362356-23.84061 8.063884-3.80554 5.413233-9.73771 51.496933-9.73771 51.496933s.06105.015262.16789.040701c-2.43697 2.788018-6.39515 4.329568-8.95422 4.777279-3.16959.554551-3.24082 3.164502-3.24082 3.164502l10.83664.061051s8.49125 0 8.72019-.015262c1.20577-.08649 1.83663-4.492373 2.10628-7.112499.18824-.040701.36122-.091577.52402-.152629 0 0 14.16395-36.513879 15.30866-40.466963.12211-.417185.51894-.742793 1.14472-1.002262.12719.050877.26456.081402.40701.081402h2.82363l-.02544.132279c0 .040701.06105.732617.11702 2.029962-.84455 1.053138-1.44489 2.177503-1.57208 3.327306-.27473 2.503111.10684 11.472592.53929 19.612791-.61052 5.514985-1.53646 11.854165-2.9203 18.910699-1.55681.742793-3.11871 1.215943-4.34992 1.429623-3.16959.554551-3.24081 3.164502-3.24081 3.164502l6.63426.040701-.00509.02035h1.21086l.00508-.015262 2.99153.015262s3.54607 0 6.11532-.005087v.005087h1.20577l.00509-.005087c.79367-.005088 1.33804-.005088 1.39401-.010175 1.44997-.10684 2.06557-6.410407 2.22837-8.409843.31035-.111928.56473-.249294.73771-.427361 0 0 .24421-3.27643.55964-7.758627 2.53364-11.126634 3.22047-20.569264 3.31204-26.379331 3.4952-1.5212 11.0605-3.922558 17.2267-5.677789h5.71849c-.38666 3.515549-.80893 24.64954 8.08423 48.668213h1.20577c-6.46637-29.93558-4.80272-48.306991-4.79254-48.535934l-.02544-.132279h5.91691c-.38666 3.515549-.80894 24.64954 8.08423 48.668213h1.20577c-6.46637-29.93558-4.80272-48.306991-4.79254-48.535934l-.03053-.132279h.30017c.4121 0 .76823-.23403.95139-.564726.06614-.005088.11192-.005088.11192-.005088.01018-.101752.01018-.21368.01018-.330695.01017-.061052.02035-.127191.02035-.19333v-.590164c0-.10684-.02035-.208593-.04579-.305258l-.00509-.111928c-.06105-5.942345.18825-11.599783.61052-16.834948h3.86659l1.07858 6.089886 10.71962 60.761496c.07632.422273.4528.737706.89542.737706.39175 0 .69192-.335784.64105-.712268l-8.74054-65.12159-.23403-1.75523h12.58678c2.16733 0 3.93782-1.770493 3.93782-3.932734 0-2.16224-1.77049-3.932733-3.93782-3.932733" fill="#d7e9f2"/><path d="m41.3110534 541.690358h-8.8921496s4.0884148-5.906732 7.4716849-12.296788c1.6499165 5.830417 1.7114768 9.651223 1.4204647 12.296788zm64.5543196 1.22103c-.755003-.752969-1.789826-1.22103-2.936068-1.22103h-21.1172016c1.9628054-16.092156 5.1730963-26.72529 5.222955-26.877919.0335783-.10684.0508763-.244206.0508763-.391747 0 0 .7214251-4.405883-6.839802-4.512723-7.0463596-.101752-10.4749095 2.813457-11.1011961 3.881858-1.9795945-9.030533-4.7533673-16.524604-8.1707244-17.58283-1.4596394-.447711-3.1650111-.630865-4.9380481-.651216-.184172-.559638-.6262865-1.694178-1.3421153-1.96891-.0559638-.025438-.1511024-.035613-.2630301-.040701-.5647263-1.271906-1.1126634-2.854157-1.4708322-4.71114.0223856-.076315.0447711-.152629.072753-.234031 2.7742815-3.708878 4.390111-11.421716 3.0927668-12.764849-4.8210327-4.975696-21.9169763-1.750143-15.317819 4.131151-.0783494.208592-.1399096.422273-.2014699.635953-.5479371 1.994349.2350482 12.154334 2.7462995 12.418891 0 0 .8048622.040701 1.9572091-.055964.0447711.518937.1063313 1.317694.1785756 2.238554-.5703227.137366-.9335791.223856-.961561.234031-1.3197297.478237-2.3321669 1.714529-2.8358417 2.426797 0 0-2.1301883 1.109102-4.4063913 2.752405-2.2706067 1.633127-4.6867195 3.800455-5.2458494 5.896556-1.1182598 4.192202-5.212271 24.522349-6.7950309 25.941796-.4863768.437536-2.5499172 1.058226-5.1730963 1.704354.1902772.432448.3805543.864896.5764279 1.292256.2289431.503675.4527985 1.00735.6822504 1.505937.1673828.356134.329678.717355.4975696 1.068401 1.9572091 4.222728 4.0039603 8.328441 6.1066754 12.2917.1846807.356134.3749579.712268.565235 1.068402 3.019505 5.657438 6.1570428 11.045232 9.3225626 16.132856.8613348 1.388921 1.728266 2.752405 2.5946884 4.095537v.005088c.5932169.905597 1.1747324 1.806107 1.7618442 2.691353.072753.111928.1511025.223856.2233467.335783 4.1108004-1.485586 9.8766049-3.271342 14.7922674-4.670439h6.0344311c-.3296781 3.006786-.6878468 18.284922 4.2171317 37.495791 1.280555 1.465236 2.5107425 2.843982 3.6737734 4.115888-4.5518973-25.78408-3.1538182-41.260633-3.1426254-41.4794l-.0335784-.132279h6.246585c-.4080274 3.713966-.8557383 26.007935 8.5339809 51.359567h1.269871c-6.8230128-31.589059-5.066765-50.977995-5.0611686-51.227288l-.0279819-.132279h.318994c.430413 0 .8048622-.244206 1.0007357-.600339h.1175241c.0111928-.111928.0111928-.228943.0111928-.351046.0162804-.066139.0223856-.132279.0223856-.203505v-.625778c0-.111928-.0223856-.218768-.0503675-.315433l-.0055964-.122103c-.0615603-6.27304.2009611-12.245911.6486721-17.765984h4.0823096l12.4433113 70.550085c.0783495.442624.4812893.778407.950877.778407.4136239 0 .7270215-.356134.6710576-.752968l-9.2218276-68.723628-.246241-1.851896h13.2822603c2.287396 0 4.155063-1.867158 4.155063-4.151501 0-1.139628-.469588-2.177503-1.218995-2.930471zm-82.959309-24.094989.0167892-.005087-.1561901-.579989h.0335783l-12.197579-45.554588-.0111928-.035613h-8.08626991c.01119278.091577.02187679.19333.03306956.289995.76619621 6.028834 1.80661536 11.935566 3.0759776 17.710019 1.77303704 8.058797 3.99327624 15.8683 6.55998265 23.382721.5871118 1.739968 1.1966092 3.459585 1.8290009 5.169027 1.3029406 3.566424 2.6842305 7.06671 4.1270808 10.495768.1287169.30017.2574338.610515.3912383.910685h5.1064484l2.0910135-1.231205z" fill="#c7ddea"/><path d="m1234.92315 134.668211h-568.252013c10.399104-11.537206 20.711718-24.103129 30.851353-37.7659436.198418-.2681178.391747-.531148.595252-.7885818 3.184853-4.2502012 6.542685-8.3493001 10.058233-12.3034016h478.745435c4.88921 3.9652943 9.61561 8.0699895 14.16904 12.3034016 12.72923 11.8394104 24.10516 24.7080474 33.8327 38.5545254" fill="#d3e3ef"/><path d="m1406.5908 626h-1404.80907604c-.87724999 0-1.59546338-.769441-1.59546338-1.708049v-.583902c0-.938608.71821339-1.708049 1.59546338-1.708049h1404.80907604c.87674 0 1.59546.769441 1.59546 1.708049v.583902c0 .938608-.71872 1.708049-1.59546 1.708049" fill="#2e3552"/><g transform="translate(239.774186 133.931721)"><path d="m784.562021 68.897566c0 .5922343-.010176 1.1732812-.030526 1.7378965-.183155 5.2741716-1.190504 9.3285642-2.396271 9.3285642h-.345959c-1.119277 0-2.060487-3.4897773-2.340307-8.2021304-.025438-.3884134-.040701-.7848677-.055964-1.1897127l-.005087-.0856537c-.015263-.517768-.020351-1.0491707-.020351-1.5889639l.025438-68.16107635h5.138501z" fill="#167437"/><path d="m780.614024 66.1475657c-18.931049 0-34.275324 16.2244336-34.275324 36.2386383h68.545561c0-20.0142047-15.344275-36.2386383-34.270237-36.2386383" fill="url(#b)"/><path d="m783.340991 66.5891715c-.981912-.2146978-1.989261-.327643-3.006786-.327643-12.332401 0-22.329583 16.1735573-22.329583 36.1246755h6.01866c0-18.2991666 8.409842-33.4185682 19.317709-35.7970325" fill="#167437"/><path d="m531.890252 68.897566c0 .5922343-.010175 1.1732812-.030526 1.7378965-.188242 5.2741716-1.190504 9.3285642-2.401359 9.3285642h-.34087c-1.119278 0-2.065576-3.4897773-2.340307-8.2021304-.025439-.3884134-.045789-.7848677-.055964-1.1897127l-.005088-.0856537c-.015263-.517768-.025438-1.0491707-.025438-1.5889639v-68.16107635h5.199552z" fill="#167437"/><path d="m493.666931 102.386204h68.540474c0-20.0142047-15.344275-36.2386383-34.270237-36.2386383s-34.270237 16.2244336-34.270237 36.2386383z" fill="url(#c)"/><path d="m530.669222 66.5891715c-.986999-.2146978-1.989261-.327643-3.011873-.327643-12.332402 0-22.329583 16.1735573-22.329583 36.1246755h6.018659c0-18.2991666 8.414931-33.4185682 19.322797-35.7970325" fill="#167437"/><path d="m38.2223032 65.3523701v19.7135263c0 .8557384-.0111928 1.7058804-.0335784 2.5219354v.0117015c-.1846807 7.6726461-1.1854164 13.5727637-2.3932184 13.5727637h-.346976c-1.1182598 0-2.0635403-5.0779576-2.3377633-11.93404v-.0111927c-.0279819-.5596387-.0447711-1.1411541-.0559638-1.7226696l-.0055964-.1231205v-.0055964c-.0162804-.7550034-.0223856-1.5211996-.0223856-2.3097814v-19.7023335c1.7338623-.0170159 3.4677247-.0223855 5.1954819-.0111928" fill="#167437"/><path d="m0 123.594983h68.5435259c0-20.014205-15.3437658-36.2391469-34.2717629-36.2391469s-34.271763 16.2249419-34.271763 36.2391469z" fill="url(#d)"/><path d="m37.0017821 87.7979506c-.9844553-.2146977-1.9887523-.3281517-3.0098385-.3281517-12.3318923 0-22.3290739 16.1740661-22.3290739 36.1251841h6.019677c0-18.299675 8.4108603-33.4190768 19.3192354-35.7970324" fill="#167437"/></g></g></svg>