<svg height="108" viewBox="0 0 121 108" width="121" xmlns="http://www.w3.org/2000/svg"><g fill="none" fill-rule="evenodd"><g fill="#82b378"><path d="m69.7649578 60.7517217s-7.4788076-8.7252756-.4629738-14.2656983c0 0 5.1232376-3.0983632 9.3052647-2.8490696 0 0-5.9219946 9.9310425-4.0090479 10.9180416 1.9180343.9869991 5.7998916-11.5387317 5.7998916-11.5387317s11.6608347-1.1294526 15.4155013.6715664c0 0-9.9717434 8.1605492-7.8705546 8.6438735s12.8666019-7.5195086 12.8666019-7.5195086 10.851902 1.8468076 10.271913 8.4658067c-.574902 6.6189991-4.314305 8.664224-5.957608 8.4912448-1.643303-.1780668-11.2589123-3.8513315-11.4675049-2.5031111-.2136802 1.3482204 5.5760361 5.7490154 9.6308729 5.9525203 0 0-7.6517871 8.4403686-12.7394113 6.0033966-5.0825366-2.4318844-5.5200723-6.2933912-8.6896622-7.7433641-3.1695899-1.4448852-5.8762059-1.4448852-4.5686865.0356134 1.312607 1.475411 7.0463595 2.9101211 8.8626414 6.1153243 1.8111942 3.2102909 3.4392339 5.3725312-1.8264571 4.5788618-5.2606035-.7936694-13.8128998-4.6399133-14.1842963-9.0508835-.3764842-4.4058825-.3764842-4.4058825-.3764842-4.4058825"/><path d="m105.749724 53.4560683s-29.4776949-1.1345402-35.9847662 7.2956531c0 0-1.4397977 4.3092177-5.8711184 8.2368636l-.6919168 1.882421s5.1079747-5.3877941 6.9395194-5.713402c0 0-2.8592448-10.4448925 35.608282-11.7015357"/><path d="m63.8938394 68.9885849s-6.3290045 4.6806143-6.7665402 13.0395809l1.1498031.1017524s2.0197868-8.6438735 5.672701-12.022056c3.6529142-3.3832701-.0559639-1.1192773-.0559639-1.1192773"/></g><path d="m43.6247446 49.782804s11.8897778-6.6597001 6.3442674-15.7004083c0 0-4.441496-5.550598-9.1984246-6.9751328 0 0 2.5387245 13.4771165 0 13.7925492-2.5387245.3205204-1.7450551-15.2221716-1.7450551-15.2221716s-12.5257308-6.0237471-17.4403758-5.550598c0 0 7.7688022 13.1616838 5.2300777 12.8462511s-11.2589124-13.6348329-11.2589124-13.6348329-12.84116347-2.3810081-14.9067389 5.2300777c-2.06048781 7.6110858 1.27190605 11.4166288 3.1746775 11.8948654 1.90277146.4731491 14.1130696.3154327 13.7925492 1.9027715-.3154327 1.5822511-8.56247151 4.1209756-13.1616838 2.6964408 0 0 5.07744897 12.5257308 11.7371491 11.8897778 6.6597-.635953 8.7201879-4.7569286 12.8462511-5.0723613 4.1209756-.3205204 7.1328491.7936693 5.0723613 1.9027714s-9.0407082.3612213-12.3680144 3.195028c-3.3323939 2.8287191-6.0288347 4.5737742.1577163 5.8405926 6.1865511 1.2719061 17.2826595.4782367 19.5059512-4.278692 2.2182042-4.7569286 2.2182042-4.7569286 2.2182042-4.7569286" fill="#a8d29f"/><path d="m6.52070123 26.949546s33.29850047 10.7806757 37.10404337 22.8332575c0 0-.1577164 5.3928816 3.1695899 11.574345v2.3810082s-3.4850226-8.0893225-5.3877941-9.1984246c0 0 7.4482819-10.465243-34.88583917-27.5901861" fill="#82b378"/><path d="m46.7943345 61.3571493s5.1385004 7.799328 2.2080289 17.2928347l-1.3176947-.3561337s1.2820813-10.4550677-1.4092719-15.7156712c-2.6862656-5.2555158.5189377-1.2210298.5189377-1.2210298" fill="#82b378"/><path d="m62.545619 40.5945543s-15.6800578-8.7761518-8.3640542-20.6913677c0 0 5.8558555-7.3160036 12.1238085-9.1984246 0 0-3.3425691 17.7659838 0 18.1882566 3.3476568.4171852 2.2996062-20.07067752 2.2996062-20.07067752s16.5144281-7.94178139 22.9960614-7.31091598c0 0-10.2413875 17.3487986-6.8988184 16.9265257 3.3425691-.4171851 14.8405998-17.97457629 14.8405998-17.97457629s16.9316137-3.13397651 19.6484047 6.89881843c2.716791 10.03279496-1.673828 15.04919236-4.182027 15.67497016-2.508199.6308654-18.6003542.4171852-18.183169 2.5081988.4171851 2.0910135 11.28435 5.4386702 17.348799 3.5562493 0 0-6.690226 16.5144282-15.4663781 15.6749702-8.7812394-.8343704-11.4980307-6.2679531-16.9316134-6.6902259-5.4386702-.4171851-9.4070171 1.0480506-6.6902258 2.5081988 2.7167913 1.4652357 11.9152159.4833243 16.3058356 4.2125528 4.3855321 3.7343162 7.9417814 6.0339223-.2085926 7.7026631-8.1554616 1.6738283-22.7874688.6308654-25.7128527-5.6421753-2.925384-6.2730406-2.925384-6.2730406-2.925384-6.2730406" fill="#a8d29f"/><path d="m111.458038 10.49617s-43.8960215 14.214822-48.912419 30.0983848c0 0 .2085926 7.107411-4.1820271 15.2628727v3.1339765s4.5992123-10.6585728 7.1074111-12.1238085c0 0-9.8242024-13.7976369 45.987035-36.3714255" fill="#82b378"/><path d="m58.3635919 55.8574269s-6.7665402 10.2770009-2.910121 22.7925565l1.7399675-.4680614s-1.6890913-13.782374 1.8518952-20.7168058c3.5409864-6.9293442-.6817417-1.6076893-.6817417-1.6076893" fill="#82b378"/><path d="m62.0165061 105.782284c16.9621391 0 30.7088997-13.7467609 30.7088997-30.7089h-61.4177994c0 16.9621391 13.7467606 30.7089 30.7088997 30.7089" fill="#f1a34f"/><path d="m69.5716281 105.548253c-1.246468.157716-2.5234616.234031-3.8157182.234031-16.9570515 0-30.7038121-13.7467609-30.7038121-30.7089h7.6263487c0 15.6698826 11.737149 28.597536 26.8931816 30.474869" fill="#ffb973"/><path d="m93.1476787 107.344184h-62.2623451c0-2.091013 1.6941788-3.785192 3.7851924-3.785192h54.6919602c2.0910136 0 3.7851925 1.694179 3.7851925 3.785192" fill="#f1a34f"/><path d="m30.3002568 76.0196821h63.1221536v-.9462981h-63.1221536z" fill="#d86713"/></g></svg>