<svg height="292" viewBox="0 0 346 292" width="346" xmlns="http://www.w3.org/2000/svg"><g fill="none" fill-rule="evenodd"><g fill="#ffb27d"><path d="m116.770843 89.9294724s5.474283-4.4771093 7.443194-4.4974598c1.96891-.0254382 5.708314-1.0073496 5.560773-.3713966-.147541.6410406-3.29678 1.475411-2.757492 1.7704932.544376.2950822 5.11815-.9310352 6.395143-.1933297 1.282082.7377055 4.278692 3.7851924 1.872246 5.1130623-2.411534 1.3278699-9.641048 3.4443216-11.513293 3.2001157-1.867158-.2492936-6.100062-.5443758-6.100062-.5443758z"/><path d="m46.8261851 256.36601 4.5941246 19.348235 6.878468-.040701.2543812-19.307534z"/><path d="m104.69791 257.190205 13.263437 18.274746 4.899382-6.293391-7.865467-14.525167z"/></g><path d="m77.9166566 23.2815945v-.0050876c0-.0457887-.0050876-.0966649-.0152629-.1424535-.0864896-.961561-.1933297-1.9180343-.3256079-2.8643325v-.0050876c-.3917471-2.8999458-.961561-5.6879638-1.6483903-8.1808997-.3968346-1.4296224-.8292827-2.76257995-1.2973441-3.96325926-.0712268-.18315448-.1424535-.3561337-.2085926-.53420055l-.0050876-.00508762c-1.1192774-2.72696658-2.3911834-4.6857019-3.6936152-5.42340741-2.3759205-1.35330804-5.2249901-1.49576151-7.2142512-1.38383378.5138501-.52911292 1.5211997-.71735502 1.5211997-.71735502-1.2362927-.18824209-3.9886974 1.03787534-3.9886974 1.03787534-17.1707317-6.61391147-19.8722602 18.6664932-19.5110388 24.5426992.3561337 5.876206-5.7744535 7.7942403-14.703234 12.4188907-17.04862873 8.8321156-18.54439025 20.6557543-18.54439025 20.6557543.12719061.081402.26964409.1678916.41718519.2747317.84454562-1.43471 2.58960076-4.1260633 4.05483646-4.5330732-.0559638.1322782-1.7348798 3.7037904-2.3657452 5.7490154 2.152065 1.6433026 5.1028871 4.1260632 8.2877398 6.9089936l.0050876.0050877c4.2685168 3.7190533 8.9542186 7.9621319 12.7037977 11.4013658-.0254381-1.1752412.0203505-2.8388943.4477109-3.7190533l.717355 4.3092177.0915773.5647263c2.396271 2.1978537 4.2786919 3.953084 5.2351653 4.8535935.1017525.0864896.1882421.1729792.2645564.2391184.2798194.2645564.4273605.4019223.4273605.4019223-.1373659-1.5059368 1.9790858-5.0672737 5.3013044-9.4578934.2238555-.3052575.4680614-.6156026.7071798-.9310353 1.0684011-1.3889214 2.2436422-2.8388943 3.5002854-4.3295682.4527986-.5392881.9106848-1.0785763 1.3838338-1.6280397.3815718-.4426233.7631436-.880159 1.1548907-1.3227823l.0050876-.0050876c.9259476-1.0531382 1.882421-2.1113641 2.8541572-3.1746775 2.518374-2.7422295 5.158851-5.4437579 7.7331888-7.9010804 3.7343162-3.5765999 7.3363541-6.634262 10.2566504-8.5522963.1119277-.1577164.2187679-.325608.3154327-.4934996.5443758-.8750714 1.0073496-1.8722457 1.4041843-2.8948582.122103-.310345.2340307-.6206901.3408708-.9310352 1.1447155-3.2866052 1.6585655-6.6393496 1.7704932-7.4381066-.2798193 3.2967805-.7326178 5.7490154-1.2261174 7.5805601-.1119277.4019223-.2187678.7733189-.3357832 1.1141897v.0050876c-.2543812.7733189-.5087624 1.4092719-.7631436 1.9282096.4985872-.4629738.9564733-.9819115 1.3787461-1.5619006.2747317-.3764842.5342006-.7784065.7733189-1.2006794 2.8694201-5.0011346 3.4901102-12.9988798 2.7931057-20.6913676" fill="#163560"/><path d="m70.7888951 48.2414791c.0610515.0254381-5.5149846 2.9202963-9.707187 1.7704932-3.9479964-1.0734887-6.5223342-6.186551-6.4663704-6.1967262 1.6687408-.3357832 2.1520651-2.6303018 2.1164517-12.4952051l.7529684.1526287 12.69871 2.5132864s-.2899946 3.993785-.3001698 7.7586269c-.0050876 3.1594146.1831545 6.1611129.9055971 6.4968961" fill="#ffb27d"/><path d="m56.4316196 6.29401742s6.2628654-6.66478772 14.1283324-.34087083c0 0-4.5788618-.78858175-14.1283324.34087083" fill="#e37970"/><path d="m70.1834678 33.9859564s-.2899946 3.993785-.3001698 7.7586269c-7.1023234-.1984174-10.8569901-6.6800506-12.3985402-10.2719133z" fill="#ed975d"/><path d="m56.1721507 30.088836s-3.7241409-5.8812936-4.6144751-10.9129539c-.6410407-3.5918627 1.190504-16.90617528 14.5658681-14.98814095 0 0 3.8869449.38157182 7.5398591 2.84906956 2.9050334 1.96382294 7.0972357 6.19672629 2.4115338 17.81685999l-1.2210298 3.9225583z" fill="#163560"/><path d="m120.790066 264.094112-6.730927.208592-7.285478.223856s-16.8298608-18.73772-26.2674037-48.769966c-.2187678-.697004-.4527985-1.404184-.6970045-2.116452-5.1639386-15.064455-15.8733875-33.970066-21.5206504-51.084834-.8954218-2.726967-1.7043541-5.291129-2.4267967-7.717926-.2289431-.778407-.4578862-1.54155-.6715664-2.294519-4.156589-14.448852-5.3623559-23.937272-6.471458-34.071819l40.7467823.325608s6.5782981 69.217127 31.3245024 145.29746" fill="#2b478b"/><path d="m83.7623368 95.3783173c-.1017525 19.3940237 2.843982 27.7122887 2.843982 27.7122887s-17.4454635 8.862642-38.1826197 2.340308c-.244206-.076315-17.1707317-3.942909-17.1707317-3.942909.3459584-.783494 3.4341463-13.853601 3.7699295-14.570956 4.3804444-9.4019295 7.7026631-13.5279928 8.2216007-16.4177633.9666486-5.3928817.9869991-10.9790931.5036748-16.2447841-1.2617308-13.9400904-5.0265727-25.5144354-5.0265727-25.5144354 5.6523505-1.2820813 11.0859332-3.4748474 16.9672267-5.6828763 1.3482205 1.6840036 5.3420055 3.3832701 8.9287805 3.3018681 4.1311509-.0915772 5.4742837-1.8620704 5.2555158-3.79028 4.4058826 2.4471472 7.9163433 4.7620163 7.9163433 4.7620163 3.7394038 6.4968961 11.3301391 12.8106377 11.8796025 22.7772935.1322783 2.4522349-5.901644 24.7258537-5.9067317 25.2702295" fill="#e7f1fd"/><path d="m72.5543007 37.5472928s-16.8095104.2798193-16.8196856-10.1905113c-.0152629-10.4703306-2.1927661-17.4861644 8.542121-18.10685456 10.7297995-.62069015 12.820813 3.37309486 13.6755339 6.86829266.8547208 3.4901102-1.0277001 21.0882024-5.3979693 21.4290732" fill="#ffb27d"/><path d="m71.9336105 8.99045851s-4.6042999 12.28661249-11.6659223 14.10289429c-7.06671 1.8162819-10.1294598-.0763143-10.1294598-.0763143s5.4183198-4.3041301 6.5426848-11.8185511c0 0 11.77785-8.05370911 15.2526973-2.20802889" fill="#163560"/><path d="m70.7939827 9.98763309s3.4341464 2.74222941 4.2736044 5.41323211c.8394579 2.6659151 1.2159421 8.1554617 2.8134561 7.9672196 0 0 3.4697598-8.3487914-.4273604-13.0751943-4.1311508-5.00622218-6.6597001-.30525741-6.6597001-.30525741" fill="#163560"/><path d="m51.186279 274.630581s.5545511 3.830981-.8750713 7.931606c0 0-1.124365 5.133413 3.9276458 5.22499 5.0520109.096665 6.2933912-.381572 5.7235773-3.525723-.5749016-3.144152-1.6636531-8.58791-1.6636531-8.58791z" fill="#ffb27d"/><path d="m60.6289095 290.834664h-11.0706702c-.4527986-2.274168.5494634-7.127761.717355-8.058797.0101752-.071226.0203505-.122103.0305257-.157716l.0050877-.050876c5.7184896 5.240253 9.300177-.137366 9.300177-.137366l.0152629.030526c.8343703 2.050312 1.0124372 7.575472 1.0022619 8.374229" fill="#c45446"/><path d="m135.035414 284.775303s-9.31544-10.338052-12.174685-15.603743l-6.929344 3.551162 15.486728 14.54043 3.622388-.473149z" fill="#ffb27d"/><path d="m140.957408 290.834664s-11.538732 0-11.721886 0c-1.724705 0-3.103451-2.859245-4.965521-6.578298-.758056-1.5212-2.467498-2.360658-4.217641-2.818544l.045789 9.396842h-2.706616l-2.487848-9.93613c-1.648391-3.032224-.132279-5.784629 1.0277-8.175833 1.353308-.005067 4.985871.920881 11.869427 8.67442 2.258905 2.543812 4.756929 3.454497 7.234602 3.378182l.10684.055964c5.718489 2.574338 5.815154 6.003397 5.815154 6.003397" fill="#c45446"/><path d="m114.059139 264.302704-7.285478.223855s-16.8298608-18.73772-26.2674037-48.769966c-.2187678-.697004-.4527985-1.404184-.6970045-2.116451-5.1639386-15.064455-15.8733875-33.970067-21.5206504-51.084835-.8954218-2.726966-1.7043541-5.291129-2.4267967-7.717926-.2289431-.778406-.4578862-1.54155-.6715664-2.294518l5.9983089-4.553424s18.020365 29.172437 23.5964011 56.630345c4.8434182 23.850782 24.2476167 52.544983 29.2741897 59.68292" fill="#233862"/><path d="m61.8194136 207.178859c.1017525 13.349926-.5749015 44.048651-2.314869 56.752448h-6.4511075c-3.5664246 0-5.347093-.050876-5.347093-.050876-4.360094-22.095552-7.4635448-40.375386-9.7224499-56.131758-1.8518952-12.927653-3.5002855-24.013586-4.7671039-33.552882-1.2769937-9.600347-2.1622403-17.64388-2.4827606-24.435859-.0457886-1.068401-.0864896-2.111364-.1068401-3.118713-.0203505-1.017525-.0254381-2.004524-.0152629-2.960998l35.2114472-3.434146c-.4426233 23.392896-4.0650118 59.16907-4.0039603 66.932784" fill="#2b478b"/><path d="m53.0534371 263.931308c-3.5664246 0-5.347093-.050876-5.347093-.050876-4.360094-22.095552-7.4635448-40.375386-9.7224499-56.131758-1.8518952-12.927653-3.5002855-24.013587-4.7671039-33.552882-1.2769937-9.600347-2.1622403-17.643881-2.4827606-24.435859l12.9225655 7.600911s-8.2470389 2.910121-5.1028871 24.929358c3.1492394 22.024325 10.1192846 78.52748 14.499729 81.641106" fill="#233862"/><path d="m54.7170902 149.541165s-2.4827606 8.964394-11.060495 7.819678c-8.5828221-1.144715-20.7829449-6.293391-20.7829449-6.293391s3.668177-11.58452 8.2266883-26.81178c5.5200723-18.427375 6.8937308-44.3284694 10.114197-59.3115227.9055971-4.1972899 6.9802204-5.5607732 7.2091635-8.0740596l7.2651273-13.8128997s10.4703307 23.8253442 11.0401446 29.8287407c.5749015 6.0084842-12.0118808 76.6552343-12.0118808 76.6552343" fill="#1c9145"/><path d="m48.7187813 90.5756c-.3866595 9.727538-3.7851924 26.313192-17.4556387 33.603758-.0559639.030526-.1119277.055964-.162804.076314 5.5200723-18.427375 5.4488456-36.1068687 8.6693117-51.089922 7.3465293-1.5313749 9.1577236 12.0576694 8.949131 17.40985" fill="#000" fill-opacity=".2"/><path d="m137.497824 84.760446h-13.176947c-.010175.0610515-.02035.3154327-.040701.6664788-.050876 1.1955917-.132278 3.5358988-.117015 3.7546666.183154 2.7931057 2.126627 4.3346559 4.009048 5.0723614h.005087l.025438.0152628c.447711.1729793.890335.3001699 1.302432.3866595.315433.0712267.62069.1170153.890334.1373658.183155.0203505.356134.0305258.51385.0305258.961561 0 1.877334-.2085926 2.701529-.5799892 2.319956-1.0378753 3.942909-3.3730948 3.942909-6.064448v-2.5896008c0-.2798193-.020351-.554551-.055964-.8292827" fill="#c45446"/><path d="m136.419247 84.760446h-1.785756c.035614.2696441.055964.5494634.055964.8292827v2.5896008c0 1.8010189-.72753 3.4443216-1.902771 4.6500885-.585077.5901644-1.276994 1.0734887-2.045225 1.4143595-.391747.1780669-.808932.3154327-1.236293.4120976-.183154.0457886-.371396.0763144-.564726.1017525.289994.0457886.590164.0661391.890334.0661391.19333 0 .381572-.0101753.564726-.0305258.758056-.0559638 1.475411-.2492935 2.136803-.5494634 1.236292-.554551 2.274168-1.4804986 2.97626-2.6303017h.005087c.274732-.4578862.503675-.9564733.661391-1.475411.19333-.6206902.295083-1.2769937.295083-1.9587353v-2.5896008c0-.2798193-.015263-.5596386-.050877-.8292827" fill="#e37970"/><path d="m128.202734 95.0527092h5.423408v-.8089322h-5.423408z" fill="#c45446"/><path d="m118.475197 87.5077626s-18.8903489 6.2933912-21.2510065 5.7693659-5.7337525-26.1198627-7.555122-34.8909268c-2.3453947-11.2996134-11.2996133-13.5432557-11.2996133-13.5432557l-8.4963325-2.274168s9.7275375 24.0288491 10.0124445 28.8875303c.2849069 4.8637687 1.1447154 79.5144787 1.1447154 79.5144787s-.5698139 3.434146 6.0084842 2.004524 8.2928275-2.859245 8.2928275-2.859245-2.8490696-20.869434-4.1922024-39.398562c6.7054887-1.144715 28.2566651-12.0678443 28.2566651-12.0678443 3.342569-5.2504282-.92086-11.1418971-.92086-11.1418971" fill="#1c9145"/><path d="m33.491522 112.818693s7.433019-1.30752 9.2696513.524025c1.8366324 1.836632 4.3753568 9.620698 2.274168 10.058233-2.0961011.437536-6.9954832-4.894294-8.2165131-4.461846-1.2261174.437535-3.4443215 1.109102-3.9683468-.055964s-4.19729-4.6043-4.19729-4.6043z" fill="#ffb27d"/><path d="m38.9149294 110.895571s-4.548336 1.984173-5.4234074 1.923122c-.8750714-.055964 1.9282096 1.750143 1.9282096 1.750143l1.3990966-1.338045s2.5031112-.758056 2.0961012-2.33522" fill="#ffb27d"/><path d="m55.6888264 43.05719s-16.529691.7275303-20.5031255 4.4211454c-3.9785222 3.6936152-27.78351583 32.2199242-28.18035052 39.6987317-.39174707 7.4788076 20.85925922 28.7298139 20.85925922 28.7298139s5.9016441-1.424535 8.4607191-5.1385c0 0-13.1820343-23.5048242-12.3985402-24.5325243.7885818-1.0277001 23.123252-19.3227968 24.9497091-15.2679603 1.5771635 3.5002855 6.8123288-27.9107064 6.8123288-27.9107064" fill="#1c9145"/><g transform="translate(85.375422 114.756514)"><path d="m16.7637218 33.914103h53.9491671l9.7275375-33.914103h-53.8677652z" fill="#c65447"/><path d="m0 33.9141033h70.5297344v-1.3227823h-70.5297344z" fill="#c65447"/><path d="m53.5828582 16.4075883c.3408708-1.1955917-.3459585-2.1622403-1.5415502-2.1622403-1.190504 0-2.4318843.9666486-2.7778428 2.1622403-.3408708 1.1905041.3510461 2.1571527 1.5415502 2.1571527 1.190504 0 2.436972-.9666486 2.7778428-2.1571527" fill="#aa413e"/></g><g transform="translate(143 26)"><path d="m138.736776 147.2919c.681742-16.763721 2.152065-31.344852 3.912383-41.515013 2.803281-16.2091708 5.326742-25.534786 5.357268-25.6365385.366309-1.4245348 5.703227-7.1939006 17.562479-7.0158338 11.86434.1780669 10.734887 7.7433641 10.734887 7.7433641.005088.2543812-.030526.4934995-.081402.6715664-.117015.391747-11.004531 39.8717108-10.531382 90.8446178.005088.712267.08649 1.953648.035613 2.772755 0 .005088-27.488433.712268-27.493521 0-.961561-4.451671-.493499-16.794247.503675-27.864918" fill="#d1a586"/><path d="m135.282279 172.129682c.005088.712267.381572 1.282081.839458 1.282081h.010175c.457887-.010175.824195-.579989.829283-1.282081h23.5557c.010175.712267.381572 1.282081.839458 1.282081h.010175c.468062-.010175.834371-.60034.829283-1.317695-.137366-14.591306.697005-28.215963 1.953648-40.243107 3.133976-29.986457 8.923693-50.0316965 9.005095-50.3115158.050876-.1780669.086489-.4171852.086489-.6715664 0 0 1.124365-7.5652972-10.739974-7.7433641-11.859252-.1780668-17.19617 5.591299-17.567567 7.0158338-.02035.0763144-1.449973 5.3572683-3.347657 14.8507751-.630865 3.1441517-1.307519 6.7563654-2.004523 10.7857634-1.760318 10.170161-3.230642 24.751292-3.912383 41.515013-.997175 11.070671-1.343133 20.386111-.38666 24.837782" fill="#e5bd9e"/><path d="m135.282279 172.129681c.005088.712268.381572 1.282082.839458 1.282082h.010175c.457887-.010176.824195-.57999.829283-1.282082h23.5557c.010175.712268.381572 1.282082.839458 1.282082h.010175c.468062-.010176.834371-.60034.829283-1.317695-.137366-14.591306.697005-28.215964 1.953648-40.243108-3.892033-19.032802-18.946313-33.5884946-22.563614-36.859837-.630865 3.1441518-1.307519 6.756365-2.004523 10.785763-1.760318 10.170161-3.230642 24.751292-3.912383 41.515014-.997175 11.07067-1.343133 20.38611-.38666 24.837781" fill="#dfb697"/><path d="m153.765618 170.242172c2.757492 0 4.522898.142454 5.148676.79367.096664-4.380445.74788-30.825915 2.314869-44.24198 1.022612-8.755802 7.102323-44.2012795 7.137936-44.3132073.035614-.1271906.055964-.2950822.055964-.4629738.005088-.0356133.239119-1.7654056-1.04805-3.2815176-1.282082-1.5008491-3.566425-2.2894309-6.802154-2.3403071-.132278 0-.259469 0-.391747 0-8.404755 0-12.250999 4.034486-12.530818 5.1181499-.06614.2543812-6.822505 27.7173769-7.98757 43.1684919-.111928 1.444885-.351047 3.886944-.656304 6.985308-1.200679 12.139071-3.693615 37.404213-1.195592 37.841748 3.912383.68683 7.845117.773319 10.826465.773319 1.002262 0 1.963823-.010175 2.864332-.02035.803845-.010175 1.561901-.020351 2.263993-.020351zm5.270779 1.622952h-.055964l-.040701-.040701c-.030526-.030525-.040701-.050876-.040701-.101752v-.066139c-.030526-.951386-1.989261-1.139628-5.133413-1.139628-.702092 0-1.460148.005088-2.258905.015263-.905597.010175-1.867158.02035-2.86942.02035-2.996611 0-6.93952-.086489-10.877341-.778406-2.528549-.442623-.819107-19.918049.976824-38.131744.305257-3.098363.544376-5.540422.656303-6.98022 1.154891-15.283223 7.931607-43.0005998 7.997746-43.2193676.295082-1.1447155 4.360094-5.4641084 13.187122-5.3165673 3.317131.0508762 5.672701.8699837 7.005658 2.436972 1.368571 1.6127769 1.119278 3.398533 1.109102 3.4748473 0 .1729792-.02035.366309-.066139.5189377-.035613.1475411-6.130587 35.7049469-7.127761 44.2674179-1.699267 14.535343-2.319957 44.384434-2.330132 44.832145v.061051l-.005088.132279z" fill="#d1a586"/><path d="m163.935779 173.411762h-92.3556426s2.152065-8.704925 55.6382586-7.40758c37.851924.915772 36.717384 7.40758 36.717384 7.40758" fill="#e5bd9e"/><path d="m171.455287 264.317432c-10.709449-54.208636-7.957044-87.471523-7.941781-87.888708.025438-.83437-1.511025-1.592426-2.340307-1.622952-.834371-.015263-4.533073-.244206-4.960434.468061-.559639.936123-2.716791 41.922024 13.243086 89.043599z" fill="#d1a586"/><path d="m85.2251445 264.317432c10.7094489-54.208636 7.9519566-87.471523 7.9417814-87.888708-.0305258-.83437 1.5110244-1.592426 2.3352195-1.622952.839458-.015263 4.5381606-.244206 4.9655216.468061.559638.936123 2.716791 41.922024-13.2430862 89.043599z" fill="#d1a586"/><path d="m68.1358148 264.317432c10.7094489-54.208636 7.9519566-87.471523 7.9417814-87.888708-.0254382-.83437 1.5110243-1.592426 2.3352195-1.622952.839458-.015263 4.5381608-.244206 4.9655212.468061.5596387.936123 2.7167913 41.922024-13.2430858 89.043599z" fill="#a0795f"/><path d="m154.248942 264.317432c-10.704361-54.208636-7.951957-87.471523-7.941781-87.888708.030525-.83437-1.511025-1.592426-2.33522-1.622952-.839458-.015263-4.533073-.244206-4.960433.468061-.564727.936123-2.716792 41.922024 13.243085 89.043599z" fill="#a0795f"/><path d="m71.5292601 176.189606h92.3556419c1.037876 0 1.887509-.849634 1.887509-1.892596v-1.241381c0-1.042963-.849633-1.892596-1.887509-1.892596h-92.3556419c-1.042963 0-1.8925962.849633-1.8925962 1.892596v1.241381c0 1.042962.8496332 1.892596 1.8925962 1.892596" fill="#d1a586"/><path d="m53.8853794 92.8950223c-3.9225583-2.2843433-5.8711184-4.115888-8.7252756-4.5279856-2.8592448-.4120976-8.0231833-.7326179-8.745626-1.8213695-1.7654056-2.665915-3.6223884-7.8705546-2.314869-7.5296838 1.3024318.3408708 6.1916387 3.7088781 7.7281012 3.1797651 1.5364625-.5240253-2.3453948-1.7704932-1.4092719-2.5438121.9717362-.8038446 5.2097272 1.1447155 6.186551 3.3273063.3459585.7631436 12.5002927 4.5432484 12.5002927 4.5432484z" fill="#ffb27d"/><path d="m109.386272 231.446292c.768231.880159.864896 1.867158.483324 2.915209l-.005087.015263c-.702093 1.943472-3.027137 4.115888-5.728665 6.283216-.345959.279819-.651216.5342-.92086.768231-.071227.061051-.137366.122103-.203505.183154-.055964.050876-.10684.101753-.162804.147541-2.518374 2.319957-1.566989 2.84907-6.0949741 7.56021-5.1588509 5.367443-8.7100126 5.464108-9.7173622 4.975696-.8547209-.417185.880159-3.261167 2.8032809-6.461282.0966649-.152629.1882421-.310345.2798194-.468062.2594688-.422273.51385-.854721.7682312-1.282081 2.2538176-3.851332 1.6738284-5.657438 1.1396279-11.391191-.4324481-4.655176-7.2447769-26.01811-7.2447769-26.01811l9.8852538-1.704354s2.9813478 17.013015 6.257778 19.633142c1.75523 1.394009 3.719053 1.414359 5.403057 2.447147.122103.071227.239118.147541.351046.218768.956473.635953 1.933297 1.292256 2.706616 2.177503" fill="#ffb27d"/><path d="m109.386272 231.446292c.768231.880159.864896 1.867158.483324 2.915209l-.005087.015263c-.859809 1.943472-3.128889 4.105712-5.738841 6.267953-.34087.279819-.64104.539288-.910684.783494-.071227.061051-.137366.122103-.203505.183154-.055964.050876-.10684.101753-.162804.147541-2.518374 2.319957-1.566989 2.84907-6.0949741 7.56021-5.1588509 5.367443-8.7100126 5.464108-9.7173622 4.975696-.8547209-.417185.880159-3.261167 2.8032809-6.461282 1.0073496-.366309 5.672701-2.263993 9.1984246-6.776716 3.1034508-3.963259 5.1792018-9.055971 7.2905658-12.006793.122103.071227.239118.147541.351046.218768.956473.635953 1.933297 1.292256 2.706616 2.177503" fill="#c65447"/><path d="m29.6682881 225.269916c-.6105149 3.052575-4.9604336 2.543812-9.8191147 1.353308-4.8586811-1.185416-3.7037904.228943-10.61787174-.539288-6.91916892-.763144-9.01527009-3.342569-9.22386269-4.370269-.18824209-.915772 3.22555375-1.236293 6.89373081-1.658566.45788618-.050876.92085998-.10684 1.38892141-.167891 4.13623851-.518938 7.16846251-3.189941 10.92821681-5.382707 3.5613369-2.07575 8.8728166-10.541557 8.8728166-10.541557l9.4833315.752968s-4.9756964 7.56021-6.8988184 10.846815c-1.1345402 1.933297-1.0734887 4.487285-.9310352 6.461283.0712267 1.073489.1424535 2.172415-.0763144 3.245904" fill="#ffb27d"/><path d="m19.8491734 226.623224c-4.8586811-1.185417-3.7037904.228943-10.61787174-.539288-6.91916892-.763144-9.01527009-3.342569-9.22386269-4.37027-.18824209-.915772 3.22555375-1.236292 6.89373081-1.658565l.03561337.071227s4.14641375 2.940647 9.90560435 3.078012c4.6907895.111928 9.6613984-1.231205 12.902215-1.180328.0712267 1.073488.1424535 2.172415-.0763144 3.245904-.6105149 3.052574-4.9604336 2.543812-9.8191147 1.353308" fill="#c65447"/><path d="m66.0193631 164.620348 20.4420741 55.012481s3.1441517.305257 6.1560253-.559639c2.7676675-.798757 5.942345-2.899946 5.942345-2.899946s-5.0723613-52.824802-14.3674507-63.808983c-9.2950895-10.989268-18.1729937 12.256087-18.1729937 12.256087" fill="#aa413e"/><path d="m146.876975 142.361992s-58.7417095-19.862085-71.8423418-15.63427c-13.1006323 4.222729-52.4330551 82.480564-52.4330551 82.480564s.8852466 1.180329 3.3120433 2.091014c2.2538176.844545 7.7077507.789348 7.7077507.789348s35.4963541-30.424759 39.7241699-39.297576c4.2278157-8.877904 5.9169069-17.328448 10.1447226-16.483902 4.2227281.844545 54.5138934 20.70663 65.9203474 8.872816 11.411541-11.828726 8.430193-27.203526 8.430193-27.203526z" fill="#c65447"/><path d="m110.978698 49.9605608c-.936123-1.9383848-1.984173-5.3776187-2.498023-11.5082059.081402.6105149 1.13454 8.3437037 4.1108 12.7190605 12.215386 8.0231834 35.628632 34.8044372 35.165659 39.8767986 0 0 8.247038-13.985879 8.389492-14.0723686 0 0 15.217084-19.3431473-2.813456-30.4290804-9.167899-5.632-9.12211-12.8564264-8.735451-19.1396423.386659-6.2781283-2.503111-33.30867568-20.859259-26.23687803 0 0-2.945735-1.30751942-4.263429-1.10910208 0 0 1.073488.20350497 1.622952.76823126-2.126627-.12210298-5.169026.03052574-7.707751 1.47541102-6.730927 3.82589341-12.754674 38.13683103-2.411534 47.65577593" fill="#b5453c"/><path d="m113.313918 51.5733381c-.061052.0254381 5.896556 3.1238012 10.378753 1.8976838 4.217641-1.1498031 6.975133-6.6189991 6.914081-6.634262-1.785756-.351046-2.299606-2.8083685-2.258905-13.3499259l-.808932.1577164-13.573781 2.6862655s.310345 4.2736044.315432 8.2979151c.010176 3.3781825-.193329 6.5833857-.966648 6.9446071" fill="#ffb27d"/><path d="m113.965134 36.3308156s.310345 4.2736043.315432 8.2979151c7.595823-.2136802 11.615046-7.1430244 13.258349-10.9841807z" fill="#ed975d"/><path d="m128.938012 32.1691391s3.983609-6.2933911 4.940083-11.6710099c.681741-3.8360686-1.276994-18.07124118-15.578306-16.02092863 0 0-4.151501.41209757-8.058796 3.04748691-3.103451 2.09610117-7.585648 6.62408672-2.574338 19.04297742l1.302432 4.19729z" fill="#b5453c"/><path d="m111.426409 40.1414468s17.974576.3001698 17.984752-10.8976911c.015263-11.1927733 2.340307-18.6919313-9.132286-19.35332249-11.472592-.66647877-13.706059 3.60203799-14.621832 7.34144169-.910684 3.7343162 1.098927 22.5483505 5.769366 22.9095719" fill="#ffb27d"/><path d="m112.092888 9.61570138s4.919733 13.13115812 12.469767 15.07463052c7.555122 1.9383848 10.826464-.081402 10.826464-.081402s-5.789716-4.6042999-6.990395-12.6376585c0 0-12.59187-8.60826017-16.305836-2.35557002" fill="#b5453c"/><path d="m113.313918 10.679015s-3.673265 2.9304716-4.573774 5.7846288c-.895422 2.8490695-1.297345 8.7151002-3.006786 8.5166829 0 0-3.708878-8.9236929.457886-13.9757037 4.421145-5.35218068 7.122674-.325608 7.122674-.325608" fill="#b5453c"/><path d="m153.33317 99.9210305c1.770493-7.4330189-4.258342-21.8564336-10.551733-33.7970876-5.713402-10.8213767-11.640484-19.6026161-12.174685-19.2871834-15.059367 8.9440434-16.422851 1.5110244-16.422851 1.5110244s-13.680621 1.8162819-17.552303 8.4861572c-5.362356 9.2187751-11.1978609 36.8954508-16.9265258 36.4833532-2.6353893-.1882421-29.1164733-10.1396351-29.1164733-10.1396351s-4.4160578 4.1311509-3.5664246 9.2035122c0 0 13.0751942 8.7558016 24.1306016 14.3420126 5.8507679 2.95591 11.1368094 5.026573 13.61957 4.436408 5.036748-1.185416 12.9073026-12.8615136 17.1605561-19.7348939l.025439-.0508762c5.428495 30.7190751-1.948561 37.7145581 1.785756 40.9553751 3.942908 3.418883 9.579996-1.62804 21.973449 3.744491 8.135111 3.525724 19.419461 8.628611 27.015284 9.513857 3.98361.468062 6.954782-.223855 7.921431-2.915208 2.818544-7.819679-10.704361-28.582273-7.321091-42.7513065" fill="#699dee"/><path d="m115.425282 33.3596437s-.335783 1.4194472-3.87677 1.2006793c0 0-2.966085-.1831544-2.879595-1.7450551 0 0 2.884683-1.1141897 6.756365.5443758" fill="#fff"/><path d="m160.654261 142.672338c-.966649 2.691353-3.937821 3.38327-7.921431 2.915208-5.260603-2.289431-27.971758-11.091021-27.717377-17.048629.376485-8.827028 4.365182-9.111935 1.551726-20.004538-2.263993-8.7507136 18.722457-25.0158482 22.070114-28.551747 6.293391 11.940654 6.46637 12.5053803 4.695877 19.9383993-3.38327 14.1690337 10.139635 34.9316277 7.321091 42.7513067" fill="#4a75cb"/><path d="m101.932902 91.424698c-4.2532535 6.8733803-12.1238081 18.549478-17.1605561 19.734894-2.4827606.590165-7.7688021-1.480498-13.61957-4.436408 4.2685167 1.104014 8.4149305 1.073489 12.4443288.681742 4.3702692-.422273 5.6370877-5.774454 12.5409937-13.8027248 4.4771096-5.2097272 5.5760366-3.8971201 5.7948036-2.1775032" fill="#4a75cb"/><path d="m122.975316 108.320698s-3.805543-2.955909-7.397405-2.253817c-3.591863.70718-5.352181 3.16959-5.214815 4.299042.142453 1.124365 2.045225 4.293955 4.792542 4.578862 2.747317.279819 10.561908-1.694179 10.561908-1.694179z" fill="#ffb27d"/><path d="m130.606752 46.83676s14.647271.9055971 19.719632 7.9773948c7.137937 9.9564805 19.531389 50.5964232 16.153207 59.8915122l-44.562501-.183155s-1.078576-5.05201.422273-7.49407 25.921445-6.384968 27.04581-7.5093333c1.129453-1.1294526-14.087631-21.9785366-14.087631-25.3567191 0-3.3832701-4.69079-27.3256296-4.69079-27.3256296" fill="#699dee"/></g><g transform="translate(195.919321 114.756514)"><path d="m63.671617 33.914103h-53.94916714l-9.72244986-33.914103h53.8626775z" fill="#1c468a"/><g fill="#163560"><path d="m9.91069196 33.9141033h70.52973444v-1.3227823h-70.52973444z"/><path d="m26.8575682 16.4075883c-.3459584-1.1955917.3459584-2.1622403 1.5364625-2.1622403 1.1955917 0 2.436972.9666486 2.7778428 2.1622403.3408709 1.1905041-.3459584 2.1571527-1.5364625 2.1571527-1.1955917 0-2.436972-.9666486-2.7778428-2.1571527"/></g></g><g transform="translate(0 148.670617)"><path d="m49.2883781 8.56850134-3.7546667 21.28153206v.0050876l-19.6484047 111.342656c-.1373658.793669-.8496332 1.378746-1.678916 1.378746-.7275302 0-1.2922565-.625778-1.1955917-1.332958l17.8372105-132.914182z" fill="#c69d7f"/><path d="m45.4986233 28.6535004c.4934996-9.1424607-5.9728708-11.9101283-5.9728708-11.9101283l1.2871689-9.6105221 8.4403686.23911834z" fill="#a0795f"/><path d="m339.0769 142.576523c-.829283 0-1.536463-.585077-1.678916-1.378746l-23.397984-132.62927566 8.435281-.23911834 17.842298 132.914182c.096665.70718-.468061 1.332958-1.200679 1.332958" fill="#c69d7f"/><path d="m323.70009 18.0356287c-5.464108 2.4115339-6.588473 8.1147606-6.588473 8.1147606l-3.312043-18.77842096 8.435281-.23911834z" fill="#a0795f"/><path d="m338.678056 14.743935h-332.32361336c-3.49519783 0-6.35444264-2.8592448-6.35444264-6.35444268v-2.03504968c0-3.49519783 2.85924481-6.35444264 6.35444264-6.35444264h332.32361336c3.495198 0 6.354443 2.85924481 6.354443 6.35444264v2.03504968c0 3.49519788-2.859245 6.35444268-6.354443 6.35444268" fill="#e0b594"/></g></g></svg>