<svg height="176" viewBox="0 0 380 176" width="380" xmlns="http://www.w3.org/2000/svg"><g fill="none" fill-rule="evenodd"><path d="m54.5591733 97.9062396c-.46043-11.1673351-1.4525168-20.8846974-2.640477-27.6563252-1.8941225-10.8010262-3.5984766-17.018103-3.6183183-17.0842421-.2492936-.9462981-3.8528579-4.792542-11.8648485-4.670439-8.0119906.1170153-7.2518995 5.1537633-7.2518995 5.1537633-.0005088.1729792.0223855.3306956.0574901.4477109.0773319.2645565 7.4314927 26.562486 7.1130075 60.5274655-.0040701.473149-.0585077 1.297344-.0244206 1.846807 0 .005088 18.5667757.473149 18.5708458 0 .6476546-2.966085.3317131-11.192773-.3413795-18.5647404" fill="#d1a586"/><path d="m56.893884 114.456281c-.0055964.473149-.2589601.849633-.5677789.849633h-.0071226c-.3088188-.005087-.5550598-.386659-.5586212-.849633h-15.9115447c-.0050876.473149-.2584513.849633-.5672701.849633h-.0076314c-.3144152-.005087-.5637088-.396834-.5601474-.875071.0925947-9.72245-.4695878-18.7987714-1.3202385-26.8117795-2.1149254-19.9791003-6.0252734-33.3341139-6.0807285-33.5172683-.0351046-.122103-.0574901-.2798194-.0574901-.4527986 0 0-.7595823-5.036748 7.2513908-5.1537633 8.0130081-.122103 11.6165723 3.7241409 11.8658659 4.670439.0147541.0508763.9798764 3.5715122 2.2629752 9.8954291.4253254 2.0961012.8842291 4.4974598 1.3553431 7.1837254 1.1869428 6.7767154 2.180047 16.4940777 2.640477 27.6614128.6730927 7.3719674.9096672 13.5839564.2625214 16.5500414" fill="#e5bd9e"/><path d="m56.893884 114.456282c-.0055964.473149-.2589601.849633-.5677789.849633h-.0071226c-.3088188-.005088-.5550598-.386659-.5586212-.849633h-15.9115447c-.0050876.473149-.2584513.849633-.5672701.849633h-.0076314c-.3144152-.005088-.5637088-.396835-.5601474-.875071.0925947-9.72245-.4695878-18.7987718-1.3202385-26.8117799 2.6313192-12.6783596 12.7984274-22.3804589 15.2420133-24.5579621.4253254 2.0961012.8842291 4.4974598 1.3553431 7.1837254 1.1869428 6.7767154 2.180047 16.4940777 2.640477 27.6614128.6730927 7.3719678.9096672 13.5839568.2625214 16.5500418" fill="#dfb697"/><path d="m40.0772509 50.6727365c-.0890334 0-.177558 0-.2681177 0-2.1988712.0356133-3.7500879.5647263-4.6109139 1.5771635-.8531945 1.0073496-.6934431 2.1418898-.6919169 2.1571526.0005088.122103.0147541.2340308.0401923.3205204.0218768.0712267 4.1326771 23.7032412 4.8215414 29.5234833 1.042963 8.8168527 1.494744 26.5523107 1.5624094 29.4776947.4227816-.437536 1.6127769-.529113 3.479935-.529113.4741666 0 .9859816.005088 1.5273048.010175.6089886.005088 1.2561344.015263 1.9327884.015263h.0005088c2.0167342 0 4.6709478-.061051 7.3165124-.518938 1.6834948-.289994.0010175-17.119855-.8079148-25.2040899-.2065575-2.0655754-.3698703-3.6987028-.443132-4.6602638-.7931607-10.3482276-5.3511632-28.592448-5.3959343-28.7603396-.1897684-.7224426-2.7875093-3.4087082-8.4632629-3.4087082zm.7387231 63.6105655-.0559639-.055964-.0015263-.045789v-.040701c-.0055964-.300169-.441097-20.3199706-1.5705496-29.8694412-.6725839-5.6828763-4.7905069-29.3962927-4.815945-29.4980452-.030017-.0966649-.0468062-.2289431-.0462974-.3561337-.0061052-.0356134-.171453-1.2108546.7341442-2.2843433.8964393-1.0531382 2.4929358-1.6076892 4.7467533-1.638215.0910685-.0050876.1806107-.0050876.2706616-.0050876 5.7805587 0 8.4413861 2.7931057 8.638786 3.5460741.0422272.1424535 4.6093875 18.452813 5.4010218 28.795953.0737706.9564734.2365745 2.5896007.4431321 4.6500885 1.2133984 12.1390714 2.3652365 25.1074254.6578298 25.4025074-2.6587924.462974-5.3231812.518938-7.3475469.518938-.6771628 0-1.3248173-.005088-1.9348235-.015263-.5408144-.005088-1.0516119-.010175-1.5252697-.010175-2.1261182 0-3.4483917.12719-3.4707772.763143v.035614c-.0020351.045788-.0157717.101752-.0854721.101752z" fill="#d1a586"/><path d="m37.5380177 115.305915h62.3808867s-1.4525167-5.794804-37.5797362-4.934996c-25.5663292.610515-24.8011505 4.934996-24.8011505 4.934996" fill="#e5bd9e"/><path d="m32.46006 175.874081c7.2330753-36.117044 5.3735487-58.278735 5.3643909-58.558555-.0183154-.554551 1.0205775-1.058226 1.5797074-1.078576.5657438-.010175 3.062241-.162804 3.351218.310345.3780105.625778 1.8345973 27.931057-8.9450609 59.326786z" fill="#d1a586"/><path d="m90.7047082 175.874081c-7.2325666-36.117044-5.3730399-58.278735-5.3638822-58.558555.0188242-.554551-1.0205774-1.058226-1.5797073-1.078576-.5657438-.010175-3.062241-.162804-3.3507093.310345-.379028.625778-1.8351061 27.931057 8.9445521 59.326786z" fill="#d1a586"/><path d="m102.24751 175.874081c-7.2325665-36.117044-5.3730399-58.278735-5.3638822-58.558555.0183155-.554551-1.0205774-1.058226-1.5797073-1.078576-.5657438-.010175-3.062241-.162804-3.3507093.310345-.379028.625778-1.8351061 27.931057 8.9445518 59.326786z" fill="#a0795f"/><path d="m44.0807024 175.874081c7.2330754-36.117044 5.37304-58.278735 5.3638822-58.558555-.0178066-.554551 1.0210862-1.058226 1.5797074-1.078576.5662525-.010175 3.062241-.162804 3.351218.310345.3785193.625778 1.8351061 27.931057-8.9445521 59.326786z" fill="#a0795f"/><path d="m99.964693 117.15781h-62.3986934c-.698022 0-1.2693622-.569814-1.2693622-1.266819v-.81402c0-.697004.5713402-1.266818 1.2693622-1.266818h62.3986934c.698022 0 1.269362.569814 1.269362 1.266818v.81402c0 .697005-.57134 1.266819-1.269362 1.266819" fill="#d1a586"/><path d="m87.0950388 75.866652s11.4039097 13.024318 13.7376032 12.8157254c2.385078-.2187679 3.83963-.9717362 5.914872 0 1.490674.6919169 6.204866 4.4872845 4.939574 4.2329033-1.26631-.2492936-3.555741-.5443758-4.16015-.6003396-.832336-.081402-2.168855-.0966649-3.075469-.2543812-.573884-.1017525-2.645056-.1577164-3.335955-.1831545-3.0016986-.0966649-17.1971877-8.3894923-17.1971877-8.3894923z" fill="#ffb27d"/><path d="m79.1822569 9.7275366s-.5153763-6.54268473-9.9249373-4.84341824c-2.4878482.44771093-4.1977987-3.98869738-8.2699332-2.40644626-8.769029 3.4036206-9.2844054-1.08875158-11.8190598 5.21481482-1.0607696 2.64047698-7.8064505 5.71848958-5.7464715 10.27700088 2.0604878 4.5635989-1.3868864 7.6314363 1.0348228 11.2080362 1.2530818 1.8518952.7438106 5.1588509 6.6566475 5.2758663 2.9447169.0559638 7.5312101 5.5149846 10.8361308 6.5019837 3.3044119.9920867 13.2278229-.4375357 12.8538826-4.9706089-.2915209-3.5358988 3.8340336-3.2408166 6.3681792-7.3109159 2.2151516-3.5511617-1.7374237-4.4465836.3759754-10.195599 1.5491816-4.2125528-2.4863219-5.2351653-2.3652365-8.7507136" fill="#1c468a"/><path d="m130.90915 170.659266c-.201979 2.187678 2.84449 2.721879 6.373267 2.899946 3.528267.172979 2.461901.895422 7.297179 1.770493 4.835278.880159 6.773154-.447711 7.123183-1.098927.311871-.579989-1.93635-1.485586-4.332112-2.508199-.301696-.132278-.603393-.264556-.905597-.396834-2.696441-1.185417-4.208992-3.602038-6.311198-5.84568-1.991296-2.12154-3.882366-8.918606-3.882366-8.918606l-6.570667-1.404184s1.844773 6.120412 2.485304 8.730363c.376993 1.536463-.179084 3.25608-.672583 4.563599-.265574.712267-.534201 1.439798-.60441 2.208029" fill="#ffb27d"/><path d="m137.282417 173.559212c3.528267.172979 2.461901.895422 7.297179 1.770493 4.835278.880159 6.773154-.447711 7.123183-1.098927.311871-.579989-1.93635-1.485586-4.332112-2.508199l-.03714.040701s-3.400568 1.149803-7.324653.08649c-3.198589-.869984-6.291356-2.78293-8.495314-3.398533-.265574.712267-.534201 1.439798-.60441 2.208029-.201979 2.187678 2.84449 2.721879 6.373267 2.899946" fill="#c65447"/><path d="m65.4756885 92.7423012s43.6635175-3.2866052 51.8841005 1.9027715c8.220074 5.1842891 21.403635 65.6150893 21.403635 65.6150893s-.813511.651216-2.63081.849633c-1.690109.183155-5.412215-.808932-5.412215-.808932s-18.946821-27.040723-20.281814-33.853051c-1.334484-6.812329-1.008367-12.886952-4.047714-13.049756-3.038838-.162804-40.9212876 4.604299-46.6514788-5.489547-5.7301911-10.0989341-.9931042-20.091028-.9931042-20.091028z" fill="#163560"/><path d="m115.885395 170.90856c-.201469 2.187678 2.844491 2.716791 6.373267 2.894858 3.528268.178067 2.461902.900509 7.29718 1.775581 4.835787.875071 6.773154-.447711 7.123182-1.104015.311872-.579989-1.936349-1.485586-4.332112-2.508199-.301696-.12719-.603392-.259468-.905088-.391747-2.69695-1.185416-4.2095-3.602038-6.312215-5.84568-1.990788-2.126627-3.881349-8.923693-3.881349-8.923693l-6.571175-1.404184s1.845281 6.120412 2.485304 8.735451c.376993 1.536462-.179084 3.250992-.672075 4.558511-.266083.712267-.534709 1.439798-.604919 2.213117" fill="#ffb27d"/><path d="m122.258662 173.803418c3.528268.178067 2.461902.900509 7.29718 1.775581 4.835787.875071 6.773154-.447711 7.123182-1.104015.311872-.579989-1.936349-1.485586-4.332112-2.508199l-.037139.040701s-3.40006 1.154891-7.324653.08649c-3.198589-.869984-6.291356-2.777843-8.494806-3.398533-.266083.712267-.534709 1.439798-.604919 2.213117-.201469 2.187678 2.844491 2.716791 6.373267 2.894858" fill="#c65447"/><path d="m58.6079046 88.682377s38.788047 1.8315447 46.8005464 7.3363541c8.011991 5.5048099 18.833367 66.4036709 18.833367 66.4036709s-.83844.615603-2.661845.742793c-1.696214.117016-5.376601-1.022612-5.376601-1.022612s-17.8804553-27.75299-18.9488564-34.611108c-1.0684011-6.858117-.5062186-12.917477-3.5364076-13.197297-3.0301889-.284907-41.0698464 3.006786-46.4026941-7.305828-5.3328477-10.3075267 11.2924907-18.345973 11.2924907-18.345973" fill="#1c468a"/><path d="m46.9974374 39.118742.04935-.0559638c.3078012-.3510461.6756364-.6664788 1.0821376-.9513858l.0142454-.0101752h.0035613c3.1685724-2.2131166 8.8295718-2.6862656 8.8295718-2.6862656v.0050876h.0005088l.0005087-.0050876s.6191639-.0559639 1.5990403-.1017525c.7422844-1.9231219 1.5873388-4.7772791 1.8493514-8.9338681l.5616737.1526287 9.437543 2.5285493s-.4182028 2.9966106-.6140763 5.8304173c-.042736.6206902-.0747881 1.2362927-.0895422 1.8061066.2732055.1017525.5260604.1984173.7494071.2899946 0 0 5.396443.635953 6.6729279 2.0096115 1.2764849 1.3736586 3.8299635 10.5161193 4.473548 12.1339838l-36.3347946.595252s-.9127198-9.4985944 1.7150381-12.6071328" fill="#ffb27d"/><path d="m92.0727704 75.9429662c-.2126627.2340308-.7717926 1.2312051-1.5603744 2.4267968-.2345395.3561337-.4919732.7326179-.7656874 1.1141897-1.1523469 1.597514-2.6119863 3.2611671-4.1219932 3.8462439-.5647262.2238555-1.1350489.2899946-1.7053716.1577163-.850142-.2085925-2.2095552-1.1701535-3.5796524-2.4674977-1.1126634-1.0582258-2.231432-2.3352195-3.0810652-3.6071256-.3357832-.5036748-.6267953-1.0073496-.8613348-1.4906739-.0503675.3815719-.0951386.7529684-.1343133 1.1040145v.0050876c-.2014699 1.9027715-.2294518 3.3832701.0783495 4.0650118.3968346.8648961 1.6773897 1.7247046 3.126345 2.5743378 2.8801041 1.678916 6.4704405 3.2916929 5.250937 4.751841-1.0287176 1.2261175-4.2278157 1.6026017-7.6558569 2.1673279-2.6903357.4426234-5.5200723 1.002262-7.5332452 2.1876785-.0783494.0407009-.1566988.0864896-.2401359.1373658-4.8322254 2.8490696-19.3334807 11.6048704-23.6340495 11.1978604-1.6946876-.162803-1.3812899-3.40362-.3525723-7.7026626 1.6163382-6.781803 5.0057134-16.2040831 5.0057134-20.2996206 0-2.2385546-5.0225026-24.3900704-5.0225026-24.3900704s-.9167899-9.4884192 1.7114768-12.5969576l1.135049-1.0124372.0111927-.0050876h.0055964c.1678916.0915772 11.1515635 6.2781283 17.5604437 6.6240867 6.4592477.3459585 11.4364705-5.7337525 11.4364705-5.7337525 1.2754674 1.3787462 3.830981 10.5161193 4.4740567 12.1339838 0 0 5.2127798 20.5692647 6.5381059 21.6274905 1.3253261 1.0633135 4.5580025 2.4725854 3.9144181 3.1848527" fill="#6bb7bf"/><path d="m70.4249294 29.0605092s-.4187115 2.9966107-.6140763 5.8304174c-5.3414966-.5087624-7.8451165-5.5760362-8.8234667-8.3589666z" fill="#f4a269"/><path d="m72.0331274 31.8637898s-12.6763245-.635953-12.1589131-8.5217706c.5169026-7.8909051-.7707751-13.2837868 7.3444943-13.21256 8.1152694.0763143 9.4889279 3.1848527 9.9564806 5.8609431.4680614 2.6760903-1.8315448 15.8377741-5.1420618 15.8733875" fill="#ffb27d"/><path d="m72.5668192 12.9378276s-3.0296803-.7071798-4.0197319.7682312c-.9900517 1.4754111-.2828719 2.2996062-2.4929359 2.9152087-2.210064.6206902-2.9615061.5749015-2.7407032 2.1215393.2213117 1.5517254-2.2212567 2.6964408-2.3260618 3.9378211-.104805 1.2362927-1.1218211 1.8569829-2.0940661 1.9434725-.9727537.0864896-.5306392-15.95987716 3.2265713-16.66705693 3.7577192-.70717976 7.3821427.13736586 8.4871747 1.01752485 1.105032.88524661 1.9597529 3.96325928 1.9597529 3.96325928" fill="#1c468a"/><path d="m72.5668192 12.9378281s2.9467519-.203505 3.4768823 1.475411c.5306392 1.678916-.1765405 2.0757507.5749016 3.0932755s.316959 2.8185438.316959 2.8185438 5.8273647-10.72979944-.316959-11.4369792c-6.1443238-.70717977-5.9820286.54437579-4.0517839 4.0497489" fill="#1c468a"/><path d="m90.512396 78.3697631c-.2345395.3561337-.4919732.7326179-.7656874 1.1141897-1.1523469 1.597514-2.6119863 3.2611671-4.1219932 3.8462439-.5647262.2238555-1.1350489.2899946-1.7053716.1577164-.850142-.2085926-2.2095552-1.1701536-3.5796524-2.4674978-1.1126634-1.0582258-2.231432-2.3352195-3.0810652-3.6071255-.3357832-.5036748-.6267953-1.0073496-.8613348-1.4906739-.0503675.3815718-.0951386.7529684-.1343133 1.1040144v-1.7959313s.7102324-31.4211671 1.7949139-17.6031798c.7946869 10.114197 8.4281582 17.5116026 12.454504 20.7422439" fill="#599dad"/><path d="m52.1155874 56.742272s-15.572709 26.8117796 17.1717492 36.1730081c.0859808-.0457886.1658565-.0966648.2431884-.1424534 2.0121554-1.1803289 4.8429095-1.7399675 7.5327364-2.1876785 3.4290587-.5596386 6.6286656-.9361228 7.6533131-2.1622402 1.2189948-1.4601482-2.3667628-3.0780127-5.2489019-4.7518411-1.4509904-.8496332-4.4974598-1.6687407-4.8958207-2.5336368-.306275-.676654-22.4562645-24.3951581-22.4562645-24.3951581" fill="#599dad"/><path d="m31.479166 86.5761004-15.5894981 88.3465946c-.0925947.529113-.565235.92086-1.117751.92086-.4868856 0-.8633698-.417185-.7992658-.885247l11.8846902-88.539924z" fill="#c69d7f"/><path d="m28.9775812 100.755309c.3281518-6.0949738-3.9805572-7.9366937-3.9805572-7.9366937l.8603173-6.4002313 5.6218247.1577164z" fill="#a0795f"/><path d="m368.934157 175.843555c-.549463 0-1.022612-.391747-1.119277-.92086l-15.588481-88.3465946 5.621825-.1577164 11.88469 88.539924c.066139.468062-.310345.885247-.798757.885247" fill="#c69d7f"/><path d="m358.825048 93.6784237c-3.642739 1.6076893-4.39062 5.4081446-4.39062 5.4081446l-2.208029-12.5104679 5.621825-.1577164z" fill="#a0795f"/><path d="m374.245637 91.4856577h-369.33404459c-2.70152845 0-4.91159241-2.2080289-4.91159241-4.9095573 0-2.7015285 2.21006396-4.9095574 4.91159241-4.9095574h369.33404459c2.701528 0 4.909557 2.2080289 4.909557 4.9095574 0 2.7015284-2.208029 4.9095573-4.909557 4.9095573" fill="#e0b594"/><path d="m159.803294 66.8259441h-77.1553475l7.1593048-58.3092611h77.1553477z" fill="#d86713"/><path d="m161.404878 66.8208564h-77.1573824l7.1572697-58.3041734h77.1573827z" fill="#f1a34f"/><path d="m168.562148 8.516683-7.15727 58.3041734h-77.1573824l1.6321098-13.2888744c63.6904416 3.8411563 65.7651746-36.3663378 65.4772146-45.015299z" fill="#e78b37"/><path d="m132.299089 33.6648089c-.186207-1.8518952-1.156417-3.6987028-3.004751-3.9276459l-3.248448.0254381c-1.955174-.2391183-3.69565 1.246468-3.759246 3.2204661l-1.421482 43.9418103c-.046806 1.4448853-1.22917 2.5896008-2.67202 2.5896008h-8.007921c-.489938 0-.947315.310345-1.073997.7834941-.191804.717355.34952 1.3685709 1.036349 1.3685709h25.098268c.048841 0 .095647-.0101752.142962-.0152629h.299661c.765179.0101753 1.366536-.6512159 1.290221-1.4143595z" fill="#d86713"/><path d="m134.075687 33.6648089c-.186207-1.8518952-1.156417-3.6987028-3.004751-3.9276459l-3.248448.0254381c-1.954665-.2391183-3.695141 1.246468-3.759245 3.2204661l-1.421483 43.9418103c-.046297 1.4448853-1.22917 2.5896008-2.671511 2.5896008h-8.007921c-.489938 0-.947824.310345-1.074506.7834941-.191803.717355.350029 1.3685709 1.036349 1.3685709h25.098777c.048841 0 .095138-.0101752.142453-.0152629h.30017c.76467.0101753 1.366027-.6512159 1.289713-1.4143595z" fill="#f1a34f"/><path d="m221.058798 27.6817633-4.278692 50.8762421s-.448219 3.0831003 1.845282 3.0881879c3.771964.0101752 18.772824 0 18.772824 0s-2.838385-.6410407-2.804298-2.0859259c.040701-1.7043541 5.001134-52.3618284 5.001134-52.3618284z" fill="#d86713"/><path d="m238.615172 80.7202457c-.741776.0050876-15.069543.0508762-18.742299 0-1.600567-.0152629-1.881403-1.4194472-1.894631-2.3301319-.006614-.4324481.048841-.758056.048841-.758056l4.278183-50.8711545 18.53625-.4833243s-2.088978 21.2001301-3.566933 36.6308943c-.164839 1.719617-.322047 3.3680072-.467044 4.9044697-.047315.4934996-.091577.9717363-.13584 1.4397977-.137365 1.4601481-.262521 2.8032809-.371396 3.9886974-.05749.6206901-.11091 1.2006793-.158225 1.7348798-.188751 2.0808383-.299153 3.4087083-.300679 3.6630895-.001017.1424534.011702.2798193.036122.4070099.30424 1.6229521 2.459358 1.6738284 2.737651 1.6738284" fill="#ee9849"/><path d="m176.042482 0 16.703179 67.0955881h90.182209l-17.892666-67.0955881z" fill="#f1a34f"/><path d="m176.042482 0-1.444377.47823668 16.226978 68.07241192 1.920578-1.4550605z" fill="#ee9849"/><path d="m190.825083 68.5506485h89.626131l2.476656-1.4550605h-90.182209z" fill="#d86713"/><path d="m222.299161 81.6665436h19.405216v-.9259476h-19.405216z" fill="#f1a34f"/><path d="m278.557601 54.7326612-14.633025-53.84741459h-88.026074v-.88524661h89.136702l14.584184 54.6105583z" fill="#f1a34f"/><path d="m236.771417 68.550648-.099718.7020921-18.249816 3.6885276.36987-4.3906197z" fill="#d86713"/><path d="m238.615172 80.7202457c-.741776.0050877-15.069543.0508763-18.742299 0-1.600567-.0152628-1.881403-1.4194471-1.894631-2.3301319l18.163836-3.4137958c-.188751 2.0808383-.299153 3.4087082-.300679 3.6630894-.001017.1424535.011702.2798194.036122.40701.30424 1.6229521 2.459358 1.6738283 2.737651 1.6738283" fill="#e78b37"/><path d="m232.360955 53.511631-39.615294 13.5839566-4.854103-19.5008636z" fill="#e78b37"/><path d="m176.042482 0h88.992722l14.439187 53.923729h-90.466099z" fill="#699dee"/><path d="m240.226931 60.7360574c-.256925-1.3176947-1.537989-2.3911834-2.860262-2.3911834-1.322274 0-2.186152 1.0734887-1.928719 2.3911834.256926 1.3227823 1.537481 2.396271 2.859754 2.396271 1.322782 0 2.186152-1.0734887 1.929227-2.396271" fill="#d86713"/><path d="m275.277101 51.5834219h-83.324092l-12.224544-48.6987389h82.123413z" fill="#e9f3fe"/><path d="m263.441252 8.65404885h-82.265358l-1.447429-5.76936585h82.123413z" fill="#afcdfb"/><path d="m183.125981 5.49463364c-.099209-.40192231.142962-.72244264.541323-.72244264.397852 0 .800792.32052033.90051.72244264.098699.39683469-.143471.71735501-.541324.71735501-.397852 0-.8013-.32052032-.900509-.71735501" fill="#e9f3fe"/><path d="m185.520726 5.49463364c-.099209-.40192231.142962-.72244264.541323-.72244264.397852 0 .800792.32052033.900509.72244264.099209.39683469-.143471.71735501-.541323.71735501s-.801301-.32052032-.900509-.71735501" fill="#e9f3fe"/><path d="m188.099642 5.49463364c-.099208-.40192231.142963-.72244264.540815-.72244264.398361 0 .801301.32052033.900509.72244264.099209.39683469-.142962.71735501-.541323.71735501-.397852 0-.800792-.32052032-.900001-.71735501" fill="#e9f3fe"/><g fill="#afcdfb"><path d="m203.295358 21.6071399h-12.563888c-.388185 0-.78502-.3154327-.881685-.7020921-.096665-.3917471.141945-.7071798.529622-.7071798h12.564396c.387677 0 .784512.3154327.881177.7071798.096665.3866594-.141436.7020921-.529622.7020921"/><path d="m203.965907 24.2934049h-12.564397c-.388185 0-.784511-.3154327-.881685-.7020921-.096665-.3866595.141945-.7071798.529622-.7071798h12.564397c.387677 0 .784511.3205203.881176.7071798.096665.3866594-.141436.7020921-.529113.7020921"/><path d="m204.635438 26.9847585h-12.563888c-.388185 0-.784511-.3205203-.881176-.7071797-.097174-.3866595.141436-.7071798.529113-.7071798h12.564397c.388185 0 .784511.3205203.881176.7071798.096665.3866594-.141436.7071797-.529622.7071797"/><path d="m225.759254 21.6071399h-12.563888c-.388186 0-.784511-.3154327-.881685-.7020921-.096665-.3917471.141945-.7071798.529622-.7071798h12.564396c.388186 0 .784512.3154327.881177.7071798.096665.3866594-.141436.7020921-.529622.7020921"/><path d="m226.429294 24.2934049h-12.563888c-.388185 0-.784511-.3154327-.881176-.7020921-.097174-.3866595.140927-.7071798.529113-.7071798h12.564396c.388186 0 .784512.3205203.881177.7071798.096665.3866594-.141436.7020921-.529622.7020921"/><path d="m227.099334 26.9847585h-12.563888c-.388185 0-.78502-.3205203-.881685-.7071797-.096665-.3866595.141945-.7071798.529622-.7071798h12.564397c.388185 0 .784511.3205203.881176.7071798.097174.3866594-.141436.7071797-.529622.7071797"/><path d="m247.364868 21.6071399h-12.563888c-.388186 0-.78502-.3154327-.881685-.7020921-.096665-.3917471.141944-.7071798.53013-.7071798h12.563888c.388186 0 .784512.3154327.881177.7071798.097173.3866594-.141436.7020921-.529622.7020921"/><path d="m248.035417 24.2934049h-12.564397c-.388186 0-.784512-.3154327-.881685-.7020921-.096665-.3866595.141944-.7071798.529621-.7071798h12.564397c.388186 0 .784512.3205203.881685.7071798.096665.3866594-.141944.7020921-.529621.7020921"/><path d="m248.704948 26.9847585h-12.563888c-.388186 0-.784511-.3205203-.881176-.7071797-.097174-.3866595.141436-.7071798.529113-.7071798h12.564396c.388186 0 .784512.3205203.881686.7071798.096156.3866594-.141945.7071797-.530131.7071797"/><path d="m258.98958 12.5002921.619164 2.4827606c.112946.4578862-.166365.8292828-.621707.8292828h-71.074111c-.455342 0-.920351-.3713966-1.033805-.8292828l-.619164-2.4827606c-.113454-.4527985.165857-.8241951.621199-.8241951h71.074619c.454834 0 .920351.3713966 1.033805.8241951"/></g><path d="m237.264916 11.676097 1.031262 4.1362385h-50.383252c-.455342 0-.920351-.3713966-1.033805-.8292828l-.619164-2.4827606c-.113454-.4527985.165857-.8241951.621199-.8241951z" fill="#f1a34f"/><path d="m247.181205 13.2990497h-.786547l-.079367-.3154327h1.204749l.069192.2747317-.402431 1.394009h-.416168z" fill="#699dee"/><path d="m249.040731 13.8179871c-.075805-.3052574-.281345-.5342005-.501131-.5342005-.219785 0-.307801.2238554-.230469.5342005.076314.3052575.278802.5342006.501131.5342006s.307292-.2238555.230469-.5342006zm-1.109102 0c-.121085-.4833243.084964-.8648961.529622-.8648961.442623 0 .834879.3764842.956982.8648961.121086.4833243-.082928.8648961-.53013.8648961-.447203 0-.834371-.3764842-.956474-.8648961z" fill="#699dee"/><path d="m251.360179 14.2453473c-.027982-.1119277-.114471-.2085926-.210119-.2085926-.100735 0-.129225.0966649-.100735.2085926.027982.1119277.114981.2085926.210119.2085926.100735 0 .128717-.0966649.100735-.2085926zm-.561673 0c-.059017-.2340307.058507-.4273604.302204-.4273604.241154 0 .450764.1882421.510289.4273604.058508.2340307-.057999.4273604-.301696.4273604-.241662 0-.451272-.1882421-.510797-.4273604zm-.679707-.8547209c-.027982-.1119277-.114472-.2085926-.210119-.2085926-.100226 0-.129226.0915773-.100226.2085926.027982.1119278.114471.2085926.210119.2085926.100226 0 .128208-.0966648.100226-.2085926zm.725495-.4070099h.284398l-.804353 1.6687407h-.284398zm-1.287169.4070099c-.058507-.2391183.058508-.4273604.302205-.4273604.241662 0 .451272.1882421.510289.4273604.059016.2340307-.057999.4273605-.301696.4273605-.241154 0-.451273-.1882421-.510798-.4273605z" fill="#699dee"/><g fill="#afcdfb"><path d="m231.367342 46.5721114h-6.300005c-.884738 0-1.780159-.7122674-2.000962-1.597514l-3.045452-12.2153858c-.220294-.8852466.317976-1.6026016 1.202205-1.6026016h6.300514c.884229 0 1.78016.717355 2.000963 1.6026016l3.045452 12.2153858c.220294.8852466-.317977 1.597514-1.202715 1.597514"/><path d="m242.272156 46.5721114h-6.300005c-.884738 0-1.780668-.7122674-2.000963-1.597514l-3.045451-12.2153858c-.220803-.8852466.317467-1.6026016 1.202205-1.6026016h6.300005c.884738 0 1.780669.717355 2.000963 1.6026016l3.04596 12.2153858c.220295.8852466-.317976 1.597514-1.202714 1.597514"/><path d="m252.973465 46.5721114h-6.300514c-.884229 0-1.78016-.7122674-2.000963-1.597514l-3.045451-12.2153858c-.220803-.8852466.317976-1.6026016 1.202205-1.6026016h6.300514c.884738 0 1.780668.717355 2.000963 1.6026016l3.045451 12.2153858c.220803.8852466-.317976 1.597514-1.202205 1.597514"/><path d="m218.915382 46.5721114h-21.329864c-1.482534 0-2.984401-1.2006794-3.353762-2.681178l-2.505655-10.0480578c-.36987-1.4855863.532674-2.6862656 2.015208-2.6862656h21.330373c1.482534 0 2.983892 1.2006793 3.353253 2.6862656l2.505655 10.0480578c.36987 1.4804986-.532674 2.681178-2.015208 2.681178"/></g><g fill="#699dee"><path d="m214.802547 35.0130294h-19.930768c-.335783 0-.679198-.2747317-.763144-.6105149-.083946-.3408708.122612-.6156025.458904-.6156025h19.930259c.335783 0 .679707.2747317.763144.6156025.083945.3357832-.122612.6105149-.458395.6105149"/><path d="m215.388132 37.3635114h-19.930259c-.335783 0-.679706-.2747317-.763143-.6105149-.083946-.3408708.122611-.6156025.458394-.6156025h19.930768c.335784 0 .679198.2747317.763144.6156025.083946.3357832-.122612.6105149-.458904.6105149"/><path d="m215.974227 39.7139944h-19.93026c-.335783 0-.679706-.2798193-.763143-.6156025-.083946-.3357832.122103-.6105149.458395-.6105149h19.930259c.336292 0 .679706.2747317.763652.6105149.083437.3357832-.122611.6156025-.458903.6156025"/><path d="m201.402253 42.3442958h-4.701982c-.335783 0-.679707-.2747317-.763144-.6105149-.083945-.3357832.122103-.6105149.458395-.6105149h4.701983c.336292 0 .679706.2747317.763652.6105149.083437.3357832-.122612.6105149-.458904.6105149"/></g><path d="m290.075982 110.314955s-11.264 5.586211-11.926409 11.660835c-.662408 6.074623 1.758283 42.781832 1.758283 42.781832s11.816516 2.233467 13.90753.061051c0 0 2.940647-39.301897 2.416621-41.07239-.518937-1.770493 32.428517-11.467505 35.353901-11.406454 2.930471.061052-41.509926-2.024874-41.509926-2.024874" fill="#163560"/><path d="m292.945402 164.594818s-.686829 11.09102-2.828719 11.248737c-.284907.02035-10.884972.02035-10.884972.02035l-13.527993-.076314s.088525-3.261167 4.042626-3.947997c3.954611-.691916 10.57361-3.469759 12.967846-8.694749 2.523461-5.499722 10.231212 1.449973 10.231212 1.449973" fill="#163560"/><path d="m254.981041 164.594818s-.687846 11.09102-2.833298 11.248737c-.285415.02035-10.882936.02035-10.882936.02035l-13.527993-.076314s.088524-3.261167 4.042626-3.947997c3.95461-.691916 10.573101-3.469759 12.968863-8.694749 2.5199-5.499722 10.232738 1.449973 10.232738 1.449973" fill="#163560"/><path d="m337.497727 90.5647983-.228943.0610515c-.254381-1.0887516-.915772-1.9994363-2.070663-2.6506522-8.353879-4.7264029-24.252705-1.5110244-24.252705-1.5110244s-51.289357 8.3335284-56.041707 15.0898938c-4.752858 6.751277-12.153825 64.271956-12.153825 64.271956s8.969481 2.340307 12.67836.951386c0 0 17.676441-45.574938 19.108099-50.504846 1.241889-4.273604 25.628398-1.15489 37.925185-2.019786 7.377056-.228943 18.915787-.758056 22.054851-1.851896 4.716228-1.643302 2.981348-21.8360827 2.981348-21.8360827" fill="#1c468a"/><path d="m319.319646 28.9384057-4.263429 5.3063921-8.068972.3968347c-.081402-.7682313-.361222-4.115888-.595252-6.9649576-.19333-2.3301319-.356134-4.3346558-.356134-4.3346558l8.521771-7.4584571c.005087.0508762.442623 2.5234616.508762 2.8846829 1.149803 6.4154942 4.253254 10.1701608 4.253254 10.1701608" fill="#e49963"/><path d="m305.165875 26.9644079c.178067-.0610515 10.902779-2.6303017 12.032232-2.1927661 1.124365.4375357 1.689091 2.6964409 1.689091 2.6964409l-17.481077 3.0067859s1.505937-2.6964409 3.759754-3.5104607" fill="#167437"/><path d="m303.782042 24.1102509s11.431891.5189377 11.650659-6.6037362c.21368-7.1277615 1.836632-11.85925206-5.453933-12.49520509-7.295653-.6308654-8.796502 2.04522493-9.447718 4.40588257-.646129 2.36065762.279819 14.37253842 3.250992 14.69305872" fill="#e49963"/><path d="m300.780343 8.66931139s2.696441 7.51950861 4.19729 6.76654021c1.505937-.7529684 2.884683-1.3787462 3.261167 1.002262.376485 2.3810081-1.129452 5.6421752 3.881858 4.7620162 5.011309-.8750713 8.745626-15.37480034 6.76654-17.42002528-5.698139-5.88638121-25.936708-2.06557542-18.106855 4.88920687" fill="#163560"/><path d="m337.497727 90.5647981c-2.884683 3.4087082-27.43247 2.5183739-34.62637-.3612214-.544376-.2136802-.971736-.4426233-1.266819-.676654-4.227815-3.3832701 5.316568-6.3595302-5.357268-32.1436097l-.015263-.040701c-7.651787-18.5291274.462974-24.5376116 5.586212-27.5087841 0 0 14.626919-4.4923722 22.802731-1.9587353 10.62296 3.2866052 15.980228 59.0215284 12.876777 62.6897055" fill="#1c9145"/><path d="m311.683122 77.9067893c-.483324 3.5104607-3.306956 12.1746847-8.811765 12.2967877-.544376-.2136802-.971736-.4426233-1.266819-.676654-4.227815-3.3832701 5.316568-6.3595303-5.357268-32.1436097l-.015263-.040701c1.785756-1.2261175 4.675527-2.6150389 6.55286-.488412 2.884683 3.2560795 9.396842 17.4149377 8.898255 21.052589" fill="#167437"/><path d="m259.719655 77.8610005s-4.607862-2.665915-6.092939-2.8846829c-1.484569-.2238554-8.536525 5.7642782-7.501193 6.2272521 1.035331.4629738 6.367161-1.7908438 7.138954-1.3227823.772301.4680614 1.368571 1.7552303 2.210573 1.7704932.841493.0152629 3.68344.0152629 3.68344.0152629z" fill="#e49963"/><path d="m301.818219 29.833828s-10.093847 5.2656911-11.416629 10.2261247-6.166201 29.0045456-8.033359 30.6834616c-1.863088 1.6840036-23.302845 5.5963866-23.302845 5.5963866s-2.511251 2.7880181-1.722161 5.3267425h33.506076s15.105156-21.8411707 14.031667-30.0831219c-1.073488-8.2419512-3.062749-21.7495935-3.062749-21.7495935" fill="#1c9145"/><path d="m346.182302 113.204726h-69.604296s1.620917-5.998309 41.932708-5.107975c28.526309.630866 27.671588 5.107975 27.671588 5.107975" fill="#e5bd9e"/><path d="m351.849915 175.863905c-8.068972-37.363512-5.998309-60.293434-5.988134-60.583429.020351-.574901-1.13454-1.098927-1.760318-1.114189-.630865-.010176-3.418883-.17298-3.739403.32052-.422273.646128-2.045225 28.897705 9.981918 61.377098z" fill="#d1a586"/><path d="m286.860603 175.863905c8.068972-37.363512 5.993222-60.293434 5.983047-60.583429-.020351-.574901 1.139627-1.098927 1.765405-1.114189.630866-.010176 3.413796-.17298 3.739404.32052.422273.646128 2.045225 28.897705-9.981919 61.377098z" fill="#d1a586"/><path d="m273.979756 175.863905c8.073043-37.363512 5.995257-60.293434 5.985082-60.583429-.020351-.574901 1.136575-1.098927 1.762353-1.114189.630865-.010176 3.418883-.17298 3.739403.32052.422273.646128 2.045225 28.897705-9.980392 61.377098z" fill="#a0795f"/><path d="m338.881561 175.863905c-8.068972-37.363512-5.993221-60.293434-5.983046-60.583429.02035-.574901-1.139628-1.098927-1.765406-1.114189-.630865-.010176-3.413796-.17298-3.739403.32052-.422273.646128-2.045225 28.897705 9.981918 61.377098z" fill="#a0795f"/><path d="m276.474727 115.117672h69.727925c.752969 0 1.363484-.610515 1.363484-1.363483v-.737706c0-.74788-.610515-1.363483-1.363484-1.363483h-69.727925c-.750424 0-1.363992.615603-1.363992 1.363483v.737706c0 .752968.613568 1.363483 1.363992 1.363483" fill="#d1a586"/><path d="m327.190201 95.1996234c.51385-11.5539945 1.622952-21.60714 2.945734-28.6178861 2.116452-11.1724228 4.019223-17.6031798 4.039574-17.6693189.279819-.9819115 4.299042-4.9604336 13.237998-4.8383306 8.938956.1221029 8.089322 5.3369177 8.089322 5.3369177.005088.1780669-.02035.3408709-.061051.4629739-.08649.269644-8.292828 27.4833459-7.936694 62.6184786.005088.4935.066139 1.348221.025438 1.918034 0 0-20.716806.488412-20.721893 0-.722443-3.072925-.366309-11.579432.381572-19.2108686" fill="#d1a586"/><path d="m245.004719 81.6665435s5.592317-4.3346558 8.388475-2.9762601c2.796158 1.3634833 3.460602 2.9762601 3.460602 2.9762601z" fill="#1c468a"/><path d="m69.1657424 78.7157213s5.3109709-1.2108545 6.9898869-.6970045c1.678916.5087624 5.3949167 3.6325637 4.4918634 3.6376513-.9025446.0101753-4.4908459-1.6840036-5.0499758-1.353308-.5596387.3256079-3.0759776 1.6280397-4.7070699.9768238s-1.7247046-2.5641626-1.7247046-2.5641626" fill="#ffb27d"/><path d="m45.9198786 41.021514s-5.2076922 13.7671111-5.8349962 21.3374959c-.9803852 11.8389016-.9305265 19.2363072-.9305265 19.2363072s3.3593583.1424534 11.9289525 0c8.570103-.1424535 18.6186696 0 18.6186696 0s2.5773904-2.4980235-.9366317-4.4109702c-3.514022-1.9180343-18.298658-5.4183198-17.9298052-6.8937308.3688528-1.4804987 5.4676697-22.0345005 5.4676697-22.0345005z" fill="#6bb7bf"/><path d="m71.6825901 81.6665433s3.145678-2.2029413 5.3476018-1.6433026c2.2024325.5596386 3.6173008 1.6331273 3.6173008 1.6331273z" fill="#1c468a"/></g></svg>