<svg height="343" viewBox="0 0 552 343" width="552" xmlns="http://www.w3.org/2000/svg"><g fill="none" fill-rule="evenodd"><path d="m227.533818 328.934747h290.218435c-11.060495 8.623523-24.944622 13.772199-39.978551 13.772199h-412.4943958c-35.9084516 0-65.2793062-29.370855-65.2793062-65.274219v-212.1590172c0-35.9018377 29.3708546-65.2737098 65.2793062-65.2737098h412.4943958c16.753546 0 32.087646 6.39819621 43.672166 16.8725969h-293.91205c-30.673287 0-55.760362 25.0896188-55.760362 55.7578176v200.5439715c0 30.673286 25.087075 55.760361 55.760362 55.760361" fill="#c2d9ef"/><path d="m234.854909 328.934747h287.089546c-10.943479 8.623523-24.680065 13.772199-39.55119 13.772199h-408.0478124c-35.511617 0-64.56703887-29.370855-64.56703887-65.274219v-212.1590172c0-35.9018377 29.05542187-65.2737098 64.56703887-65.2737098h408.0478124c16.575479 0 31.741687 6.39819621 43.199017 16.8725969h-290.737373c-30.342591 0-55.160022 25.0896188-55.160022 55.7578176v200.5439715c0 30.673286 24.817431 55.760361 55.160022 55.760361" fill="#9abedb"/><path d="m212.265857 306.20833c-3.250992 11.747324-27.25949 18.661406-53.521806 22.716242h-98.0029056c-23.6218392-11.187686-23.5913134-24.527436-25.4839096-61.356748-3.9174707-76.075245 37.4703523-112.802804 55.9231653-106.738356.7682312.249294 1.5517254.524025 2.3453947.839458 5.362356 2.085926 11.3657522 5.769366 17.2114332 14.54043 0 0 18.345972 29.559097 33.435866 47.192802 4.863769 5.677789 9.386667 10.124373 12.846251 11.940654l.127191.061052c.183154.096665.361221.178067.539288.259469 7.997745 3.535898 19.27192 10.958742 29.569272 20.319971h.005087c15.964965 14.514992 29.584535 33.674984 25.005673 50.225026" fill="#1c9145"/><path d="m187.255097 255.983304c-13.741673 4.085362-84.464737 23.825344-101.1063563 2.894858-12.0525817-15.16112-4.548336-54.000044 2.1062765-79.12782 2.7269665-10.297351 16.3516238-12.637658 22.3092318-3.805542.055964.086489.117016.172979.17298.264556 0 0 18.345972 29.559097 33.435866 47.192802 4.370269 5.570949 8.674399 9.864903 12.846251 11.940654l.127191.061052c.178066.096665.361221.178067.539288.259468 7.997745 3.535899 19.27192 10.958743 29.569272 20.319972" fill="#167437"/><path d="m148.792658 185.723213s4.019223 5.942345 6.313741 18.442638c2.004524 10.943479 3.764842 14.988141 6.664788 17.231783 2.894858 2.243642 19.042977 8.872817 19.042977 8.872817l-1.205767 2.828719s-23.667627-3.225554-26.328455-7.178638c-2.65574-3.958172-12.795375-27.32563-12.006793-32.708336.788582-5.387794 7.519509-7.488983 7.519509-7.488983" fill="#f4a269"/><path d="m206.750873 316.286914c-.208593 2.309781 3.001698 2.86942 6.725839 3.057662 3.719053.183154 2.594688.946298 7.697575 1.872246 5.102887.92086 7.143025-.473149 7.514421-1.165066.330696-.610515-2.045225-1.566989-4.568686-2.645565-.320521-.137366-.635953-.274732-.956474-.412097-2.843982-1.251556-4.441496-3.805543-6.6597-6.171289-2.101189-2.238554-4.095537-9.412104-4.095537-9.412104l-6.929344-1.480499s1.943472 6.456195 2.620126 9.213687c.396835 1.622953-.188242 3.434147-.70718 4.812893-.279819.747881-.564726 1.516112-.64104 2.330132" fill="#ffb27d"/><path d="m213.476712 319.344576c3.719053.183155 2.594688.946298 7.697575 1.872246 5.102887.92086 7.143025-.473149 7.514421-1.165066.330696-.610515-2.045225-1.566988-4.568686-2.645565l-.040701.040701s-3.586775 1.22103-7.728101.091577c-3.373095-.915772-6.634262-2.930471-8.959307-3.581687-.279819.747881-.564726 1.516112-.64104 2.330132-.208593 2.309781 3.001698 2.86942 6.725839 3.057662" fill="#c65447"/><path d="m137.727075 234.091257s46.06335-3.464672 54.732661 2.009611c8.6744 5.469196 22.578876 69.217128 22.578876 69.217128s-.859808.686829-2.772755.895421c-1.785756.19333-5.713402-.85472-5.713402-.85472s-19.984188-28.521222-21.39346-35.710035c-1.409271-7.183725-1.063313-13.594132-4.268516-13.767111s-43.168492 4.858681-49.212589-5.789716c-6.044098-10.648398-1.048051-21.189955-1.048051-21.189955z" fill="#163560"/><path d="m189.127342 323.684319c-.21368 2.309782 3.001699 2.86942 6.72584 3.057662 3.719053.183155 2.594688.946298 7.697575 1.872246 5.097799.92086 7.143024-.473149 7.514421-1.159978.325608-.615603-2.045225-1.572076-4.573774-2.650652-.315433-.137366-.635953-.274732-.951386-.412098-2.843982-1.251556-4.441496-3.800455-6.6597-6.166201-2.101189-2.243642-4.095538-9.417192-4.095538-9.417192l-6.929344-1.475411s1.943473 6.451107 2.620127 9.2086c.396834 1.622952-.188242 3.434146-.70718 4.812892-.279819.752969-.564726 1.5212-.641041 2.330132" fill="#ffb27d"/><path d="m195.853182 326.741981c3.719053.183155 2.594688.946298 7.697575 1.872246 5.097799.92086 7.143024-.473149 7.514421-1.159979.325608-.615602-2.045225-1.572075-4.573774-2.650652l-.035614.040701s-3.586775 1.22103-7.728101.096665c-3.373095-.915772-6.634262-2.935559-8.959306-3.586775-.279819.752968-.564726 1.5212-.641041 2.330132-.21368 2.309781 3.001699 2.86942 6.72584 3.057662" fill="#c65447"/><path d="m128.706717 236.945414s40.919762 1.938385 49.370306 7.743364c8.450543 5.804979 19.867172 70.04641 19.867172 70.04641s-.885246.651216-2.808368.783494c-1.790844.127191-5.672701-1.073488-5.672701-1.073488s-18.859823-29.279278-19.989276-36.513879c-1.124365-7.234602-.5342-13.629746-3.729229-13.924828-3.195028-.295082-43.326207 3.174678-48.948032-7.702663-5.626912-10.87734 11.910128-19.35841 11.910128-19.35841" fill="#1c468a"/><path d="m143.287848 146.904641c-1.816282-1.195592-4.070099-1.465236-5.657438-1.475411.432448-.391747 1.246468-.4935 1.246468-.4935-.971736-.21368-3.225554.615603-3.225554.615603-13.293962-6.166201-16.778984 13.782374-16.804422 18.468076-.025439 4.685702-.351047 10.058233-7.438107 13.792549-13.9502656 7.341442-3.602038 22.477124-3.602038 22.477124.101752.066139 5.535335 10.87734 5.535335 10.87734-.091577-3.795367 18.641055-22.543262 28.119299-27.900531 2.426797-3.10345 3.591863-8.80159 3.68344-9.249301-.686829 4.533074-1.638215 7.036185-2.426797 8.430194 8.16055-6.563035 5.382707-32.362378.569814-35.542143" fill="#b5453c"/><path d="m141.222273 180.533836c-.234031-.101752-.503675-.203505-.788582-.305257.015263-.605427.045789-1.251556.091577-1.907859.208593-2.991523.646129-6.150938.646129-6.150938l-9.951393-2.671003-.595252-.157716c-.274732 4.385532-1.170154 7.392318-1.94856 9.42228-1.032788.045789-1.689092.111928-1.689092.111928-.167891.595252 4.232904 9.691924 10.037883 9.925955 1.902771.076314 7.107411-7.051448 4.19729-8.26739" fill="#ffb27d"/><path d="m141.171397 172.169783s-.437536 3.159414-.646129 6.150937c-5.637087-.539288-8.272477-5.886381-9.305264-8.82194z" fill="#f4a269"/><path d="m130.248267 168.328626s-2.645564-4.868856-3.088188-8.913517c-.32052-2.889771 1.84172-13.370277 12.368015-11.13681 0 0 3.067837.508763 5.840593 2.665915 2.202941 1.709442 5.306392 5.296217.966648 14.280961l-1.170153 3.052575z" fill="#b5453c"/><path d="m142.870663 175.125692s-13.370276-.666479-12.825901-8.989832c.544376-8.318266-.814019-14.011317 7.748452-13.935003 8.557384.076314 10.007357 3.357832 10.500856 6.181463.4935 2.823632-1.933297 16.702671-5.423407 16.743372" fill="#ffb27d"/><path d="m143.888188 152.404363s-4.309218 9.513857-10.017532 10.582258c-5.708315 1.073489-8.043534-.595252-8.043534-.595252s4.533073-3.133976 5.82533-9.040708c0 0 9.788589-5.779541 12.235736-.946298" fill="#b5453c"/><path d="m142.926627 153.13698s2.589601 2.360658 3.113626 4.522898.5342 6.542685 1.816282 6.481633c0 0 3.195028-6.451107.351046-10.409279-3.022049-4.202378-5.280954-.595252-5.280954-.595252" fill="#b5453c"/><path d="m156.251115 234.788261c-1.083664 1.292257-4.461847 1.689091-8.07406 2.284343-2.843982.468062-5.82533 1.058226-7.946869 2.304694-4.823068 2.828719-20.569265 12.393453-25.188827 11.961005-1.785756-.167892-1.455061-3.586775-.371397-8.119849 1.709442-7.158287 5.280954-17.099505 5.280954-21.418898 0-2.360657.783494-7.941781 1.831545-14.326749.086489-.51385.172979-1.032788.259469-1.556813 2.07575-12.408716 4.94517-27.040723 4.94517-27.040723s3.205204 6.985308 9.442631 6.985308c6.242515 0 4.792542-5.326743 4.792542-5.326743s5.693051.666479 7.036184 2.116452c1.348221 1.449973 4.756929 7.712838 5.43867 9.42228 0 0 .137366 2.172416-5.24534 3.210291 0 0 1.312607 5.896557 1.465236 9.82929.117015 2.905033-1.984174 12.001706-2.584514 17.659144-.21368 1.999436-.244205 3.571512.081402 4.288867.417186.910685 1.765406 1.821369 3.296781 2.716791 3.042399 1.770493 6.822504 3.474848 5.540423 5.01131" fill="#1c468a"/><path d="m150.710692 229.776951c3.454497 5.886382-9.366316 7.656875-11.492943 8.903343-4.81798 2.828719-19.556828 13.090457-24.17639 12.658009-1.785756-.167892-1.455061-3.586775-.371397-8.119849 1.709442-7.158287 5.280954-17.099504 5.280954-21.418897 0-2.360658.783494-7.941782 1.831545-14.32675l5.555685-5.336918s5.952521 15.390063 11.630309 17.913525c2.971173 1.317695 6.079711 2.192766 8.364054 2.721879-.21368 1.999436-.244205 3.571512.081402 4.288867.417186.910685 1.765406 1.821369 3.296781 2.716791" fill="#163560"/><path d="m125.277659 183.479571s-4.746754-2.884683-9.340879 2.5896c-4.594124 5.469197 3.266255 44.593027 10.068409 46.602638 7.560209 2.22838 29.40138-.361221 29.40138-.361221l-.422273-3.408708s-23.250442-4.461847-24.212003-5.703227c-.966649-1.24138-3.078013-39.088217-5.494634-39.719082" fill="#ffb27d"/><path d="m126.9871 178.875271s-9.752975.875071-12.586782 4.085362-3.663089 11.905041-3.663089 11.905041 8.592997 6.934432 18.941224 4.243078z" fill="#1c468a"/><path d="m157.685825 235.663333h12.886952v-1.5212h-12.886952z" fill="#9e332e"/><path d="m167.835635 235.45474c.127191-.503675 11.843989-18.905612 11.843989-18.905612h26.079162l-13.080282 18.412112z" fill="#9e332e"/><path d="m168.929474 235.663332c.127191-.503675 11.88469-19.114204 11.88469-19.114204h24.944622l-12.444329 19.114204z" fill="#b5453c"/><path d="m190.918186 226.169826c-.254381.742793-1.068401 1.34822-1.816282 1.34822-.742793 0-1.139628-.605427-.885246-1.34822.259468-.747881 1.073488-1.353308 1.816281-1.353308.747881 0 1.144716.605427.885247 1.353308" fill="#9e332e"/><path d="m153.086612 228.698375s7.570385-1.465236 8.425106-1.098927 5.616737 4.639914 5.128325 5.494634c-.488412.854721-2.442059 1.465236-4.639913.732618s-6.95987-1.098926-7.814591-2.197853-1.098927-2.930472-1.098927-2.930472" fill="#ffb27d"/><path d="m314.196408 261.406711h-87.395208c-2.767668 0-5.026573-2.263993-5.026573-5.026573 0-2.767667 2.258905-5.03166 5.026573-5.03166h87.395208c2.767668 0 5.026573 2.263993 5.026573 5.03166 0 2.76258-2.258905 5.026573-5.026573 5.026573" fill="#e0b594"/><path d="m256.11609 261.371098-17.252133 67.365232c-.101753.40701-.625778.702092-1.236293.702092-.539288 0-.956473-.315432-.885247-.676654l13.151509-67.512773z" fill="#c69d7f"/><path d="m253.348423 272.182299c.361221-4.645-4.405883-6.049185-4.405883-6.049185l.951386-4.884119 6.222164.122103z" fill="#a0795f"/><path d="m288.325839 261.371098 17.247046 67.365232c.10684.40701.625778.702092 1.241381.702092.539288 0 .951385-.315432.880159-.676654l-12.195036-62.628654-.956473-4.884119z" fill="#c69d7f"/><path d="m291.093507 272.182299c-.366309-4.645 4.405882-6.049185 4.405882-6.049185l-.956473-4.884119-6.217077.122103z" fill="#a0795f"/><path d="m297.793908 280.464951c17.150381-32.062208 77.174171-41.225019 89.852531-65.350533l-3.729229 120.530905-83.487913-6.23234s-19.78577-16.885824-2.635389-48.948032z" fill="#1c9145"/><path d="m551.646005 65.2737098v212.1590172c0 35.903364-29.370854 65.274219-65.274218 65.274219h-412.4994835c-15.0339295 0-28.918056-5.148676-39.978551-13.772199h290.2184355c30.673286 0 55.760361-25.087075 55.760361-55.760361v-200.5439715c0-30.6681988-25.087075-55.7578176-55.760361-55.7578176 0 0-237.3274942-.9111935-282.0833244 0-18.2696585.3749579-26.8321301 22.433879-26.8321301 22.433879 3.3425691-27.8415147 41.9220235-39.3064759 58.67557-39.3064759h412.4994835c35.903364 0 65.274218 29.3718721 65.274218 65.2737098" fill="#c2d9ef"/><path d="m302.952759 236.060167-.162804 3.76993-.503675 11.518381h-10.007357l-.722442-11.518381-.234031-3.76993z" fill="#c45446"/><path d="m303.146089 233.511268h-11.859253l-.488411 2.5489h12.678359z" fill="#dde3f2"/><path d="m302.789955 239.830097-.345959 7.885818h-10.394016l-.493499-7.885818z" fill="#e37970"/><path d="m252.320723 237.138744-.066139 1.551725-.050877 1.139628-.315432 7.265127-.030526.62069-.157716 3.632564h-10.007357l-.228943-3.632564-.040701-.62069-.524026-8.404755-.12719-2.060488.030525-.066139s2.33522-.422273 3.734317.468062c.752968.483324 1.546637.198417 2.314869-.08649.656303-.244206 1.302431-.488412 1.887508-.254381 1.271906.508762 1.358396 1.149803 2.381008.72753.30017-.132278.737706-.218768 1.20068-.279819" fill="#e37970"/><path d="m241.010934 240.471137-.040701-.64104-.071227-1.139628-.12719-2.060488-.035614-.569814h5.031661c-.127191.351046-.274732.768231-.432448 1.231205-.269644-.015263-.539289-.091577-.798757-.259469-.722443-.457886-1.684004-.569814-2.452235-.569814-.732618 0-1.282082.101753-1.282082.101753l-.030525.066139.12719 2.060488.071227 1.139628z" fill="#dfd6e2"/><path d="m251.700033 251.348478h-10.007357l-.228943-3.632564-.040701-.62069-.412098-6.624087.412098 6.624087.040701.62069.228943 3.632564h10.007357l.157716-3.632564.030526-.62069.315432-7.265127.050877-1.139628.066139-1.551726c-.462974.061052-.90051.147541-1.20068.27982-.23403.096665-.417185.137366-.579989.137366-.544376 0-.819107-.47315-1.801019-.864897-.167891-.066139-.340871-.091577-.518937-.091577-.437536 0-.90051.172979-1.368571.345959-.468062.172979-.946298.345958-1.419448.345958-.030525 0-.066139 0-.096664 0 .157716-.462974.305257-.880159.432448-1.231205h6.598648l-.111927 2.630302-.050877 1.139628-.315432 7.265127-.030526.62069z" fill="#d9d3d8"/><path d="m251.700033 251.348478h-10.007357l-.228943-3.632563-.040701-.62069-.412098-6.624087-.040701-.641041-.071227-1.139628-.12719-2.060487.030525-.06614s.549464-.101752 1.282082-.101752c.768231 0 1.729792.111928 2.452235.569814.259468.167892.529113.244206.798757.259469h.096664c.47315 0 .951386-.172979 1.419448-.345959.468061-.172979.931035-.345958 1.368571-.345958.178066 0 .351046.025438.518937.091577.981912.391747 1.256643.864896 1.801019.864896.162804 0 .345959-.040701.579989-.137366.30017-.132278.737706-.218767 1.20068-.279819l-.066139 1.551725-.050877 1.139628-.315432 7.265128-.030526.62069z" fill="#e37970"/><path d="m248.082732 232.127434v-1.887509c.702092.183154 1.353308.4935 1.923122.905597-.691917.264557-1.353308.590165-1.923122.981912" fill="#e9dbde"/><path d="m245.767863 236.05508h-4.980784c-.005088-.055964-.005088-.117016-.005088-.178067 0-3.215379 2.609951-5.82533 5.82533-5.82533.508762 0 1.007349.066139 1.475411.188242v1.887509c-.005088.005087-.015263.010175-.025438.02035h-.010176v.005088l-.005087.005087c-.325608.223856-.62069.478237-.864896.752969l-.040701.050876c-.371397.437536-.651216 1.032788-.859809 1.709442h-.005088s-.193329.51385-.503674 1.383834" fill="#dfd6e2"/><path d="m252.427563 236.055079h-6.6597c.310345-.869983.503674-1.383833.503674-1.383833h.005088c.208593-.676654.488412-1.271906.859809-1.709442l.040701-.050876c.244206-.274732.539288-.529113.864896-.752969l.005087-.005087v-.005088h.010176c.010175-.010175.02035-.015263.025438-.020351.569814-.391747 1.231205-.717355 1.923122-.981911 1.470323 1.058226 2.426796 2.78293 2.426796 4.731491 0 .061051 0 .122102-.005087.178066" fill="#d9d3d8"/><path d="m245.599971 250.427619-.508762-.06614c.030525-.315432 1.658565-21.871696 1.912946-23.306406.27982-1.582251 1.811195-2.050313 1.877334-2.070663l.025438-.005088 8.150374-1.444885.091577.503675-8.135111 1.439797c-.137366.045789-1.292257.447711-1.511024 1.663654-.249294 1.419447-1.897684 23.209741-1.902772 23.286056" fill="#c45446"/><path d="m252.254584 238.690469-.050877 1.139628-.315432 7.265127h-10.460156l-.457886-7.265127-.071227-1.139628z" fill="#c45446"/><path d="m551.646005 260.267083v17.165644c0 35.903364-29.370854 65.274219-65.274218 65.274219h-412.4994835c-15.0339295 0-28.037897-5.163939-39.098392-13.782374l289.3382765.010175c19.485601 0 36.717384-10.124372 46.689127-25.371982 69.715715 3.927646 146.681294-27.376506 180.84469-43.295682" fill="#b2cee7"/></g></svg>