<svg height="64" viewBox="0 0 84 64" width="84" xmlns="http://www.w3.org/2000/svg" xmlns:xlink="http://www.w3.org/1999/xlink"><linearGradient id="a"><stop offset="0" stop-color="#1b8642"/><stop offset="1" stop-color="#15532d"/></linearGradient><linearGradient id="b" x1="59.188218%" x2="31.232052%" xlink:href="#a" y1="33.850454%" y2="96.637633%"/><linearGradient id="c"><stop offset="0" stop-color="#8dc246"/><stop offset="1" stop-color="#3bac51"/></linearGradient><linearGradient id="d" x1="49.999282%" x2="49.999282%" xlink:href="#c" y1="23.65324%" y2="104.712886%"/><linearGradient id="e" x1="61.714423%" x2="41.630271%" y1="41.295287%" y2="56.061968%"><stop offset="0" stop-color="#1da748"/><stop offset="1" stop-color="#1c9145"/></linearGradient><linearGradient id="f" x1="78.437042%" x2="26.447737%" xlink:href="#c" y1="100.534098%" y2="-6.394962%"/><linearGradient id="g" x1="64.734925%" x2="28.350222%" xlink:href="#a" y1="103.699119%" y2="4.26784%"/><linearGradient id="h" x1="35.20761%" x2="23.525064%" xlink:href="#c" y1="25.596429%" y2="32.630056%"/><linearGradient id="i" x1="64.735072%" x2="28.350698%" y1="103.699119%" y2="4.26784%"><stop offset="0" stop-color="#24254d"/><stop offset="1" stop-color="#0f1327"/></linearGradient><mask id="j" fill="#fff"><path d="m1.90792214.17528703c.10319929-.15226954.32300366-.01492343.28658038.16516945-1.96913348 9.87121432 47.92367548 29.42849122 35.66825408 46.98754672-.1054757.1517636-.3156684-.0022765-.2807627-.183887 1.8353285-9.6562158-47.3780852-29.7821006-35.67407176-46.96882917z" fill="#fff" fill-rule="evenodd"/></mask><mask id="k" fill="#fff"><path d="m1.90792214.17528703c.10319929-.15226954.32300366-.01492343.28658038.16516945-1.96913348 9.87121432 47.92367548 29.42849122 35.66825408 46.98754672-.1054757.1517636-.3156684-.0022765-.2807627-.183887 1.8353285-9.6562158-47.3780852-29.7821006-35.67407176-46.96882917z" fill="#fff" fill-rule="evenodd"/></mask><g fill="none" fill-rule="evenodd"><path d="m8.31841913 30.0514811c1.83178737-.2987215 9.45942887 10.6765734 11.07217077 10.4132635v20.3575773h3.299089v3.0931963h-17.0539354v-3.0931963h2.68267563z" fill="url(#b)"/><path d="m18.1433455 40.4055568v21.3814761h3.0380555v.6912835h-3.9324493v-21.114878c-1.6127418.2635629-.718348-.6945717.8943938-.9578816" fill="url(#d)"/><path d="m4.28529987 17.5863729c.03617034-.1798399-.18338109-.3171861-.28658038-.1651695-11.70426637 17.1867286 35.04931131 35.6728071 33.21423571 45.3287699-.0349056.1816105.1750341.3356507.2807628.1843929 12.2554214-17.5595613-35.17780455-35.476779-33.20841813-45.3479933" fill="url(#e)"/><path d="m4.28529987 17.5863729c.03617034-.1798399-.18338109-.3171861-.28658038-.1651695-11.70426637 17.1867286 35.04931131 35.6728071 33.21423571 45.3287699-.0349056.1816105.1750341.3356507.2807628.1843929 12.2554214-17.5595613-35.17780455-35.476779-33.20841813-45.3479933z" stroke="#40ae5a" stroke-width=".347"/><path d="m3.85403814 18.6623772c1.27506768 8.1570438 23.77377726 18.7453414 32.27330106 30.5391483 3.1023021 4.3047762 4.2165003 8.6565992 1.4243019 13.5929652-.0103705.012394-.0966228-.0905524-.1110404-.0832171 1.0238989-2.355372 1.658018-6.3806501-2.5949056-12.1474163-4.2531766-5.7665132-13.8939631-13.0850627-17.3948977-15.8982551-3.5009347-2.8131924-14.31586607-11.5899377-13.59675926-16.003225" fill="url(#f)"/><path d="m13.167521 37.944709c-4.28909397-4.313882-9.70073313-10.6447031-10.11251853-17.1629523-1.46553107 4.2653177 2.16010276 11.4116155 10.11251853 17.1629523" fill="url(#g)"/><path d="m13.167521 37.944709c-4.28909397-4.313882-9.70073313-10.6447031-10.11251853-17.1629523-1.46553107 4.2653177 2.16010276 11.4116155 10.11251853 17.1629523z" stroke="#16924d" stroke-width=".347"/><path d="m-8.58476435 94.3464085h100.51307185v-100.42909598h-100.51307185z" fill="url(#h)" mask="url(#j)"/><path d="m1.76324079 1.41620788c1.27506768 8.15729671 26.23361331 20.38540062 34.73313701 32.17920762 3.1025551 4.3050291 4.2165004 8.6568521 1.4245549 13.593218-.0106234.0121411-.0966228-.0905523-.1112933-.083217 1.0241517-2.355625 1.6582709-6.3806502-2.5949057-12.1474163-4.2529236-5.7667661-16.353799-14.725122-19.8544808-17.5383144-3.5009347-2.8131924-14.31586598-11.58993775-13.59701211-16.00347792"/><path d="m1.76324079 1.41620788c1.27506768 8.15729671 26.23361331 20.38540062 34.73313701 32.17920762 3.1025551 4.3050291 4.2165004 8.6568521 1.4245549 13.593218-.0106234.0121411-.0966228-.0905523-.1112933-.083217 1.0241517-2.355625 1.6582709-6.3806502-2.5949057-12.1474163-4.2529236-5.7667661-16.353799-14.725122-19.8544808-17.5383144-3.5009347-2.8131924-14.31586598-11.58993775-13.59701211-16.00347792z" stroke="#c0dca4" stroke-width=".347"/><path d="m11.0767236 20.6987926c-4.28909392-4.313882-9.70098602-10.6447031-10.11251848-17.16295227-1.46527814 4.26531766 2.16035569 11.41136247 10.11251848 17.16295227" fill="url(#i)"/><g transform="matrix(-1 0 0 1 83.567815 0)"><path d="m8.31841913 30.0514811c1.83178737-.2987215 9.45942887 10.6765734 11.07217077 10.4132635v20.3575773h3.299089v3.0931963h-17.0539354v-3.0931963h2.68267563z" fill="url(#b)"/><path d="m18.1433455 40.4055568v21.3814761h3.0380555v.6912835h-3.9324493v-21.114878c-1.6127418.2635629-.718348-.6945717.8943938-.9578816" fill="url(#d)"/><path d="m4.28529987 17.5863729c.03617034-.1798399-.18338109-.3171861-.28658038-.1651695-11.70426637 17.1867286 35.04931131 35.6728071 33.21423571 45.3287699-.0349056.1816105.1750341.3356507.2807628.1843929 12.2554214-17.5595613-35.17780455-35.476779-33.20841813-45.3479933" fill="url(#e)"/><path d="m4.28529987 17.5863729c.03617034-.1798399-.18338109-.3171861-.28658038-.1651695-11.70426637 17.1867286 35.04931131 35.6728071 33.21423571 45.3287699-.0349056.1816105.1750341.3356507.2807628.1843929 12.2554214-17.5595613-35.17780455-35.476779-33.20841813-45.3479933z" stroke="#40ae5a" stroke-width=".347"/><path d="m3.85403814 18.6623772c1.27506768 8.1570438 23.77377726 18.7453414 32.27330106 30.5391483 3.1023021 4.3047762 4.2165003 8.6565992 1.4243019 13.5929652-.0103705.012394-.0966228-.0905524-.1110404-.0832171 1.0238989-2.355372 1.658018-6.3806501-2.5949056-12.1474163-4.2531766-5.7665132-13.8939631-13.0850627-17.3948977-15.8982551-3.5009347-2.8131924-14.31586607-11.5899377-13.59675926-16.003225" fill="url(#f)"/><path d="m13.167521 37.944709c-4.28909397-4.313882-9.70073313-10.6447031-10.11251853-17.1629523-1.46553107 4.2653177 2.16010276 11.4116155 10.11251853 17.1629523" fill="url(#g)"/><path d="m13.167521 37.944709c-4.28909397-4.313882-9.70073313-10.6447031-10.11251853-17.1629523-1.46553107 4.2653177 2.16010276 11.4116155 10.11251853 17.1629523z" stroke="#16924d" stroke-width=".347"/><path d="m-8.58476435 94.3464085h100.51307185v-100.42909598h-100.51307185z" fill="url(#h)" mask="url(#k)"/><path d="m1.76324079 1.41620788c1.27506768 8.15729671 26.23361331 20.38540062 34.73313701 32.17920762 3.1025551 4.3050291 4.2165004 8.6568521 1.4245549 13.593218-.0106234.0121411-.0966228-.0905523-.1112933-.083217 1.0241517-2.355625 1.6582709-6.3806502-2.5949057-12.1474163-4.2529236-5.7667661-16.353799-14.725122-19.8544808-17.5383144-3.5009347-2.8131924-14.31586598-11.58993775-13.59701211-16.00347792"/><path d="m1.76324079 1.41620788c1.27506768 8.15729671 26.23361331 20.38540062 34.73313701 32.17920762 3.1025551 4.3050291 4.2165004 8.6568521 1.4245549 13.593218-.0106234.0121411-.0966228-.0905523-.1112933-.083217 1.0241517-2.355625 1.6582709-6.3806502-2.5949057-12.1474163-4.2529236-5.7667661-16.353799-14.725122-19.8544808-17.5383144-3.5009347-2.8131924-14.31586598-11.58993775-13.59701211-16.00347792z" stroke="#c0dca4" stroke-width=".347"/><path d="m11.0767236 20.6987926c-4.28909392-4.313882-9.70098602-10.6447031-10.11251848-17.16295227-1.46527814 4.26531766 2.16035569 11.41136247 10.11251848 17.16295227" fill="url(#i)"/></g><path d="m50.8253967 36.0170576-1.4774192-1.7493291-2.0235155 1.0719573 1.7493291-1.4774192-1.0717043-2.0237684 1.4774192 1.749582 2.0237684-1.0719573-1.7495821 1.4776722z" fill="#fffffe"/></g></svg>